<?xml version="1.0" standalone="no"?>
<!DOCTYPE svg PUBLIC "-//W3C//DTD SVG 20010904//EN"
 "http://www.w3.org/TR/2001/REC-SVG-20010904/DTD/svg10.dtd">
<svg version="1.0" xmlns="http://www.w3.org/2000/svg"
 width="740.000000pt" height="740.000000pt" viewBox="0 0 740.000000 740.000000"
 preserveAspectRatio="xMidYMid meet">

<g transform="translate(0.000000,740.000000) scale(0.100000,-0.100000)"
fill="#000000" stroke="none">
<path d="M5003 6400 c-34 -14 -30 -53 8 -84 29 -24 30 -29 20 -58 -6 -17 -29
-55 -51 -84 -40 -54 -47 -77 -30 -104 6 -10 -2 -26 -33 -60 -24 -25 -48 -58
-54 -75 -25 -68 -77 -383 -80 -490 l-3 -110 -582 -5 c-562 -5 -585 -6 -638
-26 -120 -46 -200 -98 -268 -176 l-34 -38 -51 45 c-69 63 -171 122 -275 159
l-87 31 -842 3 c-464 1 -843 0 -843 -4 0 -4 -9 -61 -21 -128 -11 -67 -18 -138
-16 -158 4 -32 2 -38 -16 -43 -56 -16 -78 -30 -98 -62 -20 -31 -21 -44 -16
-121 4 -48 72 -627 152 -1287 80 -660 157 -1299 171 -1420 28 -240 39 -276 93
-312 31 -21 45 -23 167 -23 l134 0 0 -24 c0 -17 -11 -31 -36 -46 -19 -12 -42
-33 -51 -46 -36 -56 18 -233 81 -263 34 -16 76 -2 76 25 0 10 -3 14 -6 11 -4
-4 -14 7 -23 22 -9 16 -24 41 -34 55 -10 13 -22 50 -26 81 -5 36 -14 60 -27
70 -16 12 -16 14 -3 15 25 0 36 -20 43 -81 5 -39 14 -63 28 -75 11 -11 27 -32
34 -49 12 -27 13 -19 14 85 l0 115 60 53 59 53 138 -3 138 -3 0 -87 c0 -48 4
-90 8 -94 10 -11 9 -48 -3 -60 -5 -5 -12 -34 -16 -65 -6 -54 -6 -56 23 -68 18
-7 70 -11 142 -9 94 3 116 6 125 20 15 25 -12 50 -100 92 -75 36 -91 57 -58
80 8 6 23 48 33 93 10 44 21 86 25 92 10 16 526 16 526 0 0 -12 -127 -696
-137 -737 -5 -20 -2 -22 40 -22 43 0 45 1 49 32 14 110 134 724 143 731 13 11
324 2 334 -9 5 -5 -20 -173 -55 -374 -35 -201 -64 -368 -64 -372 0 -5 18 -8
39 -8 l39 0 11 68 c7 37 35 207 64 377 l52 310 120 0 120 0 3 -259 c2 -223 5
-261 18 -271 14 -10 13 -15 -9 -49 -26 -38 -42 -103 -35 -146 5 -35 34 -39
272 -39 310 0 394 7 407 31 17 31 -15 66 -102 111 -41 21 -75 40 -77 42 -1 1
6 25 17 54 29 71 78 270 101 408 11 65 24 121 29 126 11 11 496 5 507 -6 4 -4
-20 -170 -54 -370 -34 -199 -62 -368 -62 -374 0 -8 14 -13 38 -13 l37 0 59
358 c33 196 62 366 66 377 6 14 9 4 14 -35 10 -87 36 -498 36 -566 0 -47 5
-67 21 -87 34 -44 122 -56 182 -25 22 11 22 49 -2 79 -10 13 -30 48 -45 77
l-26 52 22 0 23 0 -6 167 c-4 93 -7 212 -8 266 l-1 97 34 0 c19 0 37 -4 40 -8
3 -5 13 -123 22 -263 10 -140 21 -255 26 -257 4 -2 8 -41 8 -87 0 -64 4 -88
18 -104 44 -55 201 -44 202 15 0 6 -13 31 -30 56 -16 24 -36 61 -45 81 -13 32
-13 37 -1 37 13 0 15 37 13 263 l-2 262 23 3 c14 2 25 -3 29 -14 3 -9 34 -177
68 -373 l61 -356 -24 -3 c-13 -2 -28 0 -32 5 -4 4 -31 157 -61 338 -30 182
-55 323 -57 314 -2 -13 88 -579 103 -646 5 -19 12 -23 45 -23 37 0 40 2 35 23
-16 72 -125 730 -122 734 3 2 65 7 139 10 l133 6 48 47 c40 40 47 53 47 86 0
32 -34 332 -55 492 l-6 42 154 0 155 0 30 -162 c17 -90 77 -412 134 -716 l102
-552 43 0 c40 0 43 2 38 23 -2 12 -61 323 -130 692 -69 369 -129 680 -132 693
-5 22 -4 22 86 22 88 0 92 1 103 25 8 19 8 31 0 50 l-12 25 61 0 c54 0 60 2
54 17 -14 34 -17 100 -6 121 9 17 8 30 -4 58 -17 41 -20 100 -5 109 34 21 -12
25 -271 25 l-281 0 7 43 c12 70 22 84 80 121 30 20 55 42 55 51 0 37 -80 46
-147 15 -38 -17 -47 -29 -92 -119 -28 -54 -55 -102 -60 -106 -6 -3 -13 4 -15
17 -3 13 -39 309 -81 658 -87 724 -122 1004 -124 975 0 -11 42 -376 94 -810
52 -435 96 -801 97 -815 3 -22 -1 -25 -29 -28 -25 -3 -33 1 -33 13 0 10 -45
392 -101 851 l-100 833 22 31 c13 16 26 30 30 30 4 0 10 -19 12 -42 l4 -43 1
42 c2 32 -9 64 -47 140 -78 154 -74 152 -99 37 -19 -88 -20 -100 -6 -111 14
-10 14 -14 -1 -42 -13 -26 -22 -31 -50 -31 -33 0 -35 -2 -50 -54 -18 -62 -23
-143 -12 -198 5 -22 4 -38 -1 -38 -28 0 -30 168 -4 237 19 51 19 49 -41 526
-3 20 -1 37 3 37 18 0 126 -108 159 -160 19 -30 40 -61 47 -68 7 -7 53 -93
101 -192 64 -130 93 -180 105 -180 28 0 33 -45 9 -79 -12 -16 -21 -34 -21 -39
0 -6 23 -35 50 -65 85 -93 201 -153 216 -113 6 16 -15 83 -35 115 -8 12 -13
12 -35 -2 -14 -9 -27 -13 -30 -8 -3 4 6 14 19 21 28 15 34 36 8 25 -10 -4 -27
-9 -38 -12 -19 -4 -20 -4 -1 11 10 8 24 17 30 19 8 3 7 12 -3 28 -43 71 -63
111 -67 136 -7 41 -85 306 -94 318 -4 6 -24 53 -45 105 -21 52 -49 114 -62
138 -33 57 -125 138 -217 192 -65 39 -91 60 -71 60 11 0 142 -83 192 -122 80
-61 124 -129 183 -282 l27 -70 31 81 c54 139 58 164 38 217 -29 76 -173 179
-324 232 l-67 23 -3 85 c-3 79 -1 86 20 100 13 8 55 17 94 21 l70 7 52 97 c29
54 52 105 52 113 0 20 -94 142 -98 128 -2 -5 -12 -10 -21 -10 -12 0 -24 -15
-35 -45 -10 -25 -24 -45 -31 -45 -17 0 -58 -37 -72 -65 -6 -11 -13 -37 -17
-57 -11 -63 -23 -43 -29 50 -3 48 -13 107 -21 131 -9 24 -16 45 -16 46 0 2 29
6 64 10 35 3 72 13 83 20 17 13 17 15 1 42 -53 86 -53 89 -34 147 21 61 16 77
-34 120 -38 32 -103 50 -151 42 -32 -5 -39 -3 -44 15 -5 15 -46 43 -58 38 -1
0 -12 -4 -24 -9z m252 -177 c19 -9 35 -24 35 -32 0 -29 -57 -138 -81 -154 -40
-28 -123 9 -135 61 -4 15 -13 35 -21 44 -16 18 -9 58 9 58 6 0 20 -8 31 -17
18 -17 20 -17 41 8 25 29 54 48 73 49 7 0 28 -8 48 -17z m-147 -235 c-24 -49
-33 -53 -57 -22 -23 30 -27 70 -10 108 l12 25 36 -37 36 -37 -17 -37z m-88 32
c0 -30 7 -47 25 -66 30 -30 57 -21 73 26 14 38 24 38 55 0 38 -44 50 -95 51
-200 l1 -94 -70 -28 c-100 -39 -105 -38 -105 22 0 49 0 49 -26 40 -14 -6 -46
-10 -71 -10 l-46 0 5 -108 c7 -151 36 -197 111 -178 26 6 124 70 180 117 l38
32 -3 -73 -3 -73 -62 -13 c-77 -16 -180 -69 -263 -136 -60 -48 -64 -50 -77
-32 -8 11 -21 44 -30 74 -22 76 -13 201 31 428 39 201 53 235 119 283 55 40
67 38 67 -11z m419 -109 c12 -16 21 -32 21 -35 0 -3 -18 -6 -41 -6 -35 0 -40
3 -34 18 4 9 10 25 12 35 7 24 19 21 42 -12z m-100 -121 c10 0 40 9 65 21 65
28 81 21 61 -28 -21 -49 -42 -71 -90 -94 -22 -11 -81 -54 -131 -97 -156 -133
-206 -165 -251 -160 -48 6 -64 44 -70 162 l-6 106 39 0 c21 0 49 3 62 6 21 6
22 3 22 -46 0 -59 -9 -58 121 -9 86 33 106 50 115 100 4 19 14 45 23 59 l16
25 3 -22 c2 -14 10 -23 21 -23z m-2480 -486 c159 -39 384 -179 396 -247 5 -29
142 -1164 182 -1505 16 -134 16 -145 0 -172 -20 -33 -23 -136 -6 -173 6 -14
22 -30 35 -36 22 -10 24 -17 24 -76 0 -61 -2 -65 -22 -65 -13 -1 -48 -9 -78
-20 -30 -10 -56 -18 -57 -17 0 1 -31 252 -68 557 -36 305 -68 560 -70 565 -11
30 1 -84 60 -569 36 -294 65 -541 65 -548 0 -8 -15 -22 -32 -33 -117 -68 -318
-321 -318 -400 0 -24 -2 -25 -70 -25 -65 0 -71 -2 -82 -25 -8 -19 -8 -31 0
-50 11 -24 15 -25 102 -25 49 0 90 -2 90 -5 0 -2 -5 -27 -11 -55 l-11 -50
-284 0 -284 0 0 113 c0 61 -5 141 -11 177 -29 186 -32 428 -6 477 22 42 38 49
119 56 85 8 126 25 176 75 42 42 102 155 102 191 0 13 11 26 30 36 36 19 54
49 46 80 -4 15 1 28 14 40 21 19 26 40 12 49 -14 9 -120 -83 -131 -114 -5 -17
-14 -30 -20 -30 -5 0 -37 -19 -70 -42 -48 -33 -71 -42 -115 -46 -58 -5 -185
19 -236 44 -38 20 -42 59 -6 68 41 10 45 111 7 165 -20 28 -21 32 -6 54 12 19
13 30 5 53 -19 48 -44 56 -80 24 -13 -11 -33 -20 -46 -20 -61 0 -124 -52 -124
-102 0 -44 27 -94 70 -131 38 -32 38 -33 24 -67 -19 -44 -12 -39 -85 -56 -86
-20 -135 -51 -212 -134 -71 -77 -126 -177 -154 -280 -21 -81 -24 -270 -4 -317
12 -31 12 -34 -10 -52 l-24 -19 -6 31 c-4 18 -26 196 -50 397 -24 201 -45 356
-47 345 -2 -11 20 -209 48 -440 29 -231 57 -467 63 -525 l12 -105 88 -3 c48
-1 87 -7 87 -12 0 -5 -7 -43 -17 -85 l-16 -75 -149 0 c-133 0 -148 2 -148 17
0 10 -75 634 -166 1388 -91 753 -174 1444 -184 1535 -11 91 -22 180 -25 198
l-6 32 812 0 c712 0 821 -2 878 -16z m1936 -6 c4 -13 16 -38 27 -56 16 -25 23
-30 33 -22 10 8 33 4 89 -16 156 -55 172 -53 -554 -54 -719 0 -723 0 -828 -54
-26 -14 -63 -38 -82 -54 l-35 -29 54 -444 c29 -244 71 -586 92 -759 21 -173
39 -316 39 -317 0 -2 -16 -3 -35 -3 -26 0 -39 -6 -51 -26 -22 -33 -73 -60 -78
-42 -2 7 -18 132 -36 278 -29 247 -45 377 -134 1110 l-33 275 66 65 c77 75
145 115 251 147 74 22 85 22 642 22 l567 1 6 -22z m314 -175 c18 -16 24 -44
46 -218 40 -327 39 -320 21 -365 -21 -54 -30 -136 -21 -205 7 -62 24 -78 54
-51 21 19 13 67 77 -466 21 -175 40 -315 42 -313 3 3 -17 186 -43 408 l-49
404 22 30 22 31 -23 15 c-12 8 -19 18 -15 23 5 4 16 -1 27 -10 13 -12 21 -14
26 -6 4 6 5 13 4 14 -2 1 -15 10 -29 19 -27 19 -11 23 21 6 18 -9 23 -4 47 48
35 77 37 82 15 57 -14 -17 -26 -21 -49 -17 l-32 5 26 46 c14 26 27 49 28 50 7
10 52 -36 52 -53 0 -11 38 -337 86 -725 134 -1092 122 -972 100 -1017 l-20
-39 -49 22 c-28 12 -50 26 -50 32 0 6 -8 17 -18 24 -15 11 -24 65 -56 318 -21
168 -39 294 -40 280 0 -14 15 -149 33 -300 19 -151 33 -276 31 -278 -1 -1 -19
4 -41 11 -21 8 -60 17 -86 21 l-48 7 0 45 c0 27 5 44 12 44 6 0 20 7 30 17 22
20 24 93 4 207 -21 119 -63 164 -163 173 -69 6 -120 -7 -163 -44 -52 -43 -55
-55 -60 -262 l-5 -194 -36 -13 c-49 -16 -119 -64 -119 -79 0 -13 -80 -78 -87
-71 -2 2 8 53 22 114 30 133 31 170 5 224 -15 31 -20 62 -20 124 0 46 5 86 10
89 6 3 10 13 10 21 0 11 -14 14 -60 14 -62 0 -77 -13 -45 -40 21 -17 20 -117
-1 -141 -13 -14 -13 -24 -4 -60 7 -24 14 -52 15 -61 2 -9 -17 -77 -42 -150
-41 -116 -47 -144 -47 -218 -1 -47 3 -95 7 -107 l8 -23 -300 0 -301 0 0 49 c0
26 4 73 10 102 12 64 41 94 150 154 107 59 133 95 227 311 45 104 83 198 85
209 2 11 27 36 57 56 55 37 87 80 77 105 -8 21 -28 17 -66 -11 -25 -19 -46
-25 -83 -25 -42 0 -54 -5 -83 -34 -19 -19 -40 -36 -48 -39 -7 -3 -44 -59 -81
-124 -86 -150 -106 -177 -158 -207 -59 -35 -287 -62 -287 -34 0 6 10 32 21 56
14 29 23 68 25 113 2 37 8 78 14 90 17 30 3 126 -20 149 -11 11 -35 22 -54 26
-20 3 -36 7 -36 8 -2 13 -83 677 -126 1037 l-58 477 30 25 c16 14 50 37 75 51
99 55 99 55 840 55 640 1 688 0 708 -16z m-3979 -136 c0 -2 20 -172 45 -378
25 -206 66 -540 90 -744 24 -203 87 -724 140 -1157 52 -433 95 -794 95 -803 0
-13 20 -15 130 -15 72 0 130 -4 130 -9 0 -4 -5 -23 -11 -40 l-11 -32 -139 3
c-136 3 -138 3 -168 32 -16 15 -34 40 -40 55 -5 14 -38 256 -71 536 -34 281
-76 636 -95 790 -19 154 -61 507 -95 785 -33 278 -70 577 -80 664 -27 220 -27
246 8 278 29 27 72 48 72 35z m4539 -508 c9 -27 8 -34 -7 -45 -26 -20 -40 -17
-57 16 -19 37 -19 47 3 53 40 11 50 6 61 -24z m-43 -159 c57 -60 122 -100 162
-100 12 0 22 -4 22 -10 0 -17 -41 -11 -87 11 -59 28 -189 159 -159 159 3 0 30
-27 62 -60z m-3282 -724 c9 -75 -14 -101 -67 -75 -21 9 -21 9 -4 -5 12 -9 17
-24 15 -43 -2 -22 2 -30 22 -39 l25 -10 -26 -18 c-36 -23 -121 -32 -159 -16
-35 15 -38 26 -9 35 13 4 30 28 46 63 l25 56 -26 19 c-25 18 -34 46 -19 60 3
4 17 -3 30 -15 l23 -21 0 24 c0 28 14 49 50 72 23 16 25 16 46 -10 12 -16 24
-49 28 -77z m556 4 c0 -5 -9 -14 -21 -20 -16 -9 -19 -17 -14 -41 8 -34 -4 -53
-47 -75 -22 -11 -33 -12 -43 -4 -20 17 11 71 65 114 47 37 60 42 60 26z m1590
-83 c0 -23 -29 -55 -89 -96 l-60 -40 -53 18 -53 18 32 31 c26 27 39 32 80 32
33 1 60 8 88 25 45 28 55 30 55 12z m-206 -127 c36 -12 66 -25 66 -31 0 -12
-120 -289 -155 -358 -34 -67 -81 -112 -162 -156 -125 -66 -141 -88 -149 -213
l-7 -92 -133 0 c-104 0 -134 3 -134 13 0 38 -108 97 -176 97 -21 0 -23 -5 -26
-52 l-3 -53 -212 -3 c-209 -2 -213 -2 -213 18 0 58 82 181 199 299 81 83 187
145 266 157 35 5 41 3 50 -18 9 -20 17 -23 70 -23 55 0 61 2 73 28 12 25 18
27 70 27 98 0 219 18 259 39 57 29 92 72 174 214 40 70 74 127 75 127 1 0 32
-9 68 -20z m-597 -56 c34 -21 46 -60 39 -125 -7 -74 -20 -104 -51 -125 -51
-33 -146 14 -176 88 -7 18 -21 39 -31 46 -26 19 -23 51 6 62 13 5 27 19 31 30
15 48 125 62 182 24z m1581 -233 c-2 -38 -8 -57 -20 -65 -9 -5 -20 -7 -24 -3
-7 7 12 154 24 185 10 26 23 -54 20 -117z m-652 42 c26 -27 54 -94 54 -133 0
-19 -13 -90 -29 -157 -16 -68 -26 -123 -23 -123 2 0 27 16 54 36 28 19 51 34
53 32 1 -2 12 -34 24 -73 13 -38 24 -76 27 -83 10 -33 -130 -132 -186 -132
-130 0 -144 160 -38 429 l31 81 -17 61 c-9 33 -14 64 -11 70 10 15 42 10 61
-8z m-1022 -73 c40 -13 49 -30 36 -66 -9 -23 -14 -25 -67 -22 l-58 3 -3 74 -3
74 30 -26 c17 -14 46 -30 65 -37z m2365 31 c19 -12 7 -28 -53 -66 l-52 -33
-26 -126 c-30 -144 -64 -226 -104 -253 -22 -14 -47 -18 -114 -17 -82 1 -230
21 -230 31 0 7 52 177 56 185 2 3 46 -13 97 -37 50 -24 95 -40 99 -37 4 4 40
75 81 157 75 152 92 176 137 194 31 12 91 13 109 2z m-3991 -80 c2 -29 -6
-101 -17 -160 -25 -130 -25 -118 -1 -124 17 -4 19 -9 10 -32 -8 -22 -70 -348
-70 -370 0 -3 -39 -4 -87 -3 l-88 3 -8 69 c-7 59 -6 71 7 78 10 5 16 22 16 42
0 24 9 41 35 66 26 25 34 42 34 64 -3 80 40 264 78 340 52 104 86 114 91 27z
m1712 34 c0 -8 -9 -15 -20 -15 -22 0 -27 15 -7 23 21 9 27 7 27 -8z m1665
-160 c28 -8 59 -21 70 -28 19 -14 19 -16 -13 -118 -38 -123 -46 -170 -62 -349
-17 -204 -14 -195 -62 -215 -75 -30 -188 -40 -290 -27 -122 16 -165 30 -172
56 -3 12 -6 59 -6 106 -1 168 -17 301 -50 403 -36 112 -35 114 42 153 77 39
76 41 80 -100 3 -107 6 -128 24 -152 41 -55 70 -69 144 -69 82 0 113 18 148
85 19 39 22 60 22 163 l0 119 38 -6 c20 -4 60 -13 87 -21z m1025 -100 l0 -55
-196 0 c-115 0 -203 4 -215 10 -22 12 -27 68 -7 88 9 9 70 12 215 12 l203 0 0
-55z m-4150 -80 c52 0 109 4 127 8 31 8 31 8 43 -40 18 -75 24 -345 11 -492
-13 -149 -52 -393 -82 -524 l-21 -88 -54 3 -53 3 -5 215 c-6 275 -28 474 -66
588 -15 48 -30 96 -33 107 -5 19 -5 19 -6 -1 0 -11 10 -53 24 -92 32 -92 31
-112 -6 -219 -68 -192 -214 -436 -289 -479 -16 -10 -32 -26 -37 -36 -7 -16
-11 -15 -34 15 l-27 33 20 55 c87 236 136 408 177 622 12 59 21 111 21 114 0
3 7 2 16 -1 8 -3 32 3 53 14 37 18 38 21 45 85 4 36 4 70 1 74 -2 5 -18 11
-34 13 -17 2 -28 1 -25 -4 3 -4 17 -8 31 -8 25 0 26 -2 19 -46 -3 -26 -6 -57
-6 -69 0 -15 -11 -26 -35 -38 -42 -20 -67 -13 -60 17 2 11 9 48 16 81 21 110
18 107 101 98 40 -4 116 -8 168 -8z m4165 -85 l0 -70 -315 0 c-374 0 -376 1
-307 94 l32 45 295 0 295 1 0 -70z m-4601 28 c5 -27 1 -37 -29 -68 -23 -23
-35 -45 -35 -63 0 -37 -16 -34 -24 4 -11 54 -7 75 19 99 14 13 25 32 25 42 0
33 37 22 44 -14z m1712 -29 c47 -12 110 -62 99 -79 -3 -5 -44 -10 -91 -10
l-84 0 0 50 c0 56 2 57 76 39z m1934 -35 c18 -46 13 -54 -31 -54 -33 0 -40 3
-35 16 3 9 6 27 6 40 0 35 47 34 60 -2z m-640 -31 c0 -20 -5 -23 -40 -23 -22
0 -40 2 -40 5 0 3 15 18 32 34 35 31 48 26 48 -16z m736 37 c15 0 27 -10 38
-30 l14 -30 -64 0 c-44 0 -64 4 -64 13 0 6 -3 23 -7 36 -6 23 -4 24 27 18 18
-4 43 -7 56 -7z m-2286 -226 c0 -64 -1 -66 -22 -61 -13 3 -51 9 -86 13 -51 5
-62 10 -58 23 3 9 8 33 12 54 l6 37 74 0 74 0 0 -66z m654 -76 c8 -165 12
-156 -92 -188 -118 -37 -314 -46 -504 -24 l-48 6 0 174 0 174 319 0 318 0 7
-142z m904 85 l3 -53 -363 0 c-332 0 -433 -5 -510 -25 l-28 -7 0 71 0 71 448
-2 447 -3 3 -52z m656 41 c3 -9 6 -33 6 -55 l0 -39 -58 0 -58 0 4 43 c5 64 7
67 56 67 31 0 46 -5 50 -16z m195 -96 c7 -62 15 -128 18 -145 l5 -33 -155 0
c-151 0 -155 1 -170 23 -11 18 -14 39 -10 85 l6 62 67 0 c60 0 68 2 65 18 -2
9 -6 36 -8 60 l-5 42 87 0 88 0 12 -112z m66 70 c21 -159 55 -459 55 -491 0
-29 -7 -46 -30 -68 -30 -30 -30 -30 -129 -27 -96 3 -101 2 -110 -20 l-11 -22
-402 2 -403 3 -3 28 c-2 16 2 35 9 43 18 22 117 18 175 -8 91 -40 376 -35 459
8 16 8 56 14 96 14 54 0 70 -4 78 -17 6 -10 11 -13 11 -7 0 23 -27 34 -88 34
-39 0 -61 4 -57 10 4 6 61 10 140 10 l133 0 16 88 c27 149 28 173 12 297 -22
165 -22 165 13 165 27 0 30 -3 36 -42z m-2733 -83 c2 -3 -2 -41 -11 -85 l-15
-80 -274 0 -275 0 7 61 c3 34 6 73 6 85 l0 24 278 0 c153 0 281 -2 284 -5z
m236 -12 c21 -5 22 -10 22 -90 l0 -85 -37 6 c-21 3 -66 8 -101 12 -71 7 -66
-8 -42 118 l12 58 61 -6 c34 -4 72 -10 85 -13z m1584 -55 c3 -40 4 -78 1 -84
-3 -9 -104 -13 -381 -17 -259 -3 -389 -8 -416 -16 -29 -10 -45 -10 -66 -1 -27
11 -29 16 -32 82 -2 40 1 73 7 76 34 22 169 30 511 31 l371 1 5 -72z m-2650
-50 c3 -47 3 -48 -25 -48 -21 0 -28 4 -24 14 3 8 11 33 18 55 15 50 26 42 31
-21z m-312 -64 c0 -11 -40 -146 -57 -191 l-16 -43 -127 0 -126 0 18 108 c10
59 21 113 23 120 3 9 41 12 145 12 77 0 140 -3 140 -6z m322 -49 c3 -27 7 -80
7 -117 l1 -68 -95 0 -95 0 29 53 c16 28 39 77 52 107 30 73 38 82 68 78 23 -3
27 -9 33 -53z m788 41 c0 -8 -6 -45 -14 -83 -8 -37 -17 -85 -20 -105 l-7 -38
-264 0 c-256 0 -265 1 -265 20 0 21 18 161 26 198 l4 22 270 0 c228 0 270 -2
270 -14z m253 -2 c28 -4 37 -10 37 -25 0 -14 7 -19 25 -19 24 0 25 -2 25 -67
0 -38 3 -78 6 -90 l6 -23 -157 0 c-144 0 -156 1 -151 18 3 9 12 58 21 107 9
50 18 96 21 103 4 14 52 12 167 -4z m1579 11 c2 -3 -2 -35 -9 -72 -13 -62 -12
-109 4 -149 4 -12 -35 -14 -264 -14 l-269 0 -36 49 c-36 47 -176 151 -205 151
-7 0 -13 4 -13 9 0 9 20 13 115 24 47 6 671 8 677 2z m888 -3 c0 -10 -17 -106
-31 -179 l-10 -53 -129 0 -128 0 10 43 c9 40 5 126 -8 175 l-6 22 151 0 c83 0
151 -4 151 -8z m-3492 -284 l3 -38 -130 0 -130 0 27 40 26 41 100 -3 101 -3 3
-37z m722 18 c0 -58 11 -56 -276 -56 -145 0 -264 4 -264 9 0 5 3 23 6 40 l7
31 263 0 264 0 0 -24z m420 14 c0 -5 -18 -10 -39 -10 -41 0 -71 -20 -71 -46 0
-11 -22 -14 -115 -14 -125 0 -124 0 -109 58 6 22 9 22 170 22 103 0 164 -4
164 -10z m1475 0 c4 -6 -14 -10 -47 -10 -56 0 -78 -12 -78 -42 0 -17 -14 -18
-210 -18 l-210 0 0 24 c0 13 -3 31 -6 40 -6 14 22 16 269 16 173 0 278 -4 282
-10z m-1307 -29 c130 -7 142 -12 142 -58 l0 -23 -193 0 c-203 0 -217 3 -217
45 0 48 21 50 268 36z m-108 -107 c0 -14 -104 -649 -116 -706 -5 -23 -11 -28
-36 -28 -27 0 -29 2 -24 28 3 15 28 160 56 322 73 425 67 400 96 400 15 0 24
-6 24 -16z m1457 -11 c-3 -16 -31 -184 -63 -375 l-57 -348 -29 0 c-15 0 -28 4
-28 10 0 14 120 713 125 728 2 6 16 12 31 12 24 0 26 -3 21 -27z m-903 -45 c3
-18 8 -123 12 -233 3 -110 10 -210 16 -222 8 -17 6 -32 -14 -71 l-25 -49 -56
29 c-50 25 -57 32 -57 58 0 18 6 33 15 36 8 3 17 14 20 23 12 40 65 376 65
417 0 51 15 59 24 12z m-2189 -25 c14 -21 25 -48 25 -61 0 -19 -4 -22 -22 -18
l-23 6 23 -11 c28 -15 29 -33 1 -24 -15 5 -19 4 -15 -4 4 -6 14 -11 22 -11 9
0 14 -10 14 -27 l0 -28 -25 25 c-19 19 -26 40 -31 88 -5 47 -12 65 -26 73 -22
12 -15 29 12 29 11 0 30 -16 45 -37z m-78 -25 c6 -7 13 -37 16 -66 5 -40 14
-62 37 -88 16 -19 30 -39 30 -44 0 -4 3 -15 6 -23 7 -20 -20 -29 -52 -17 -44
17 -101 182 -81 234 8 19 31 21 44 4z m603 -94 c0 -23 -3 -25 -32 -22 -25 2
-34 8 -36 26 -3 19 1 22 32 22 32 0 36 -3 36 -26z m24 -34 c4 0 5 -7 2 -16 -5
-14 -4 -15 8 -5 21 18 41 4 24 -16 -12 -14 -11 -15 8 -3 17 10 26 9 62 -9 23
-12 42 -26 42 -31 0 -14 -187 -11 -230 3 -19 7 -35 18 -34 25 1 6 2 23 3 36 1
22 4 23 54 20 28 -2 56 -3 61 -4z m38 -97 c66 -3 115 -9 112 -14 -7 -13 -231
-11 -255 1 -27 15 -25 34 4 25 12 -4 75 -10 139 -12z m2708 -225 c12 -29 33
-67 46 -85 33 -43 31 -71 -3 -79 -16 -3 -36 -8 -45 -10 -29 -8 -96 15 -113 39
-15 22 -22 166 -8 180 3 4 28 7 53 7 l48 0 22 -52z m298 -16 c18 -37 40 -79
50 -94 16 -26 16 -29 0 -44 -25 -25 -121 -23 -156 3 -25 18 -27 27 -30 98 -2
43 -1 84 2 92 4 8 22 13 53 13 l48 -1 33 -67z m-1538 29 c0 -29 -27 -51 -64
-51 -38 0 -56 15 -56 47 0 21 4 23 60 23 53 0 60 -2 60 -19z m302 -8 c-6 -30
-23 -43 -55 -43 -35 0 -67 25 -67 51 0 16 7 18 63 14 53 -3 62 -7 59 -22z
m-368 -53 c15 0 36 5 47 11 17 8 35 3 96 -28 77 -39 108 -69 98 -95 -9 -22
-243 -38 -325 -21 l-33 6 7 60 c3 33 13 71 22 85 l16 24 22 -21 c12 -12 35
-21 50 -21z m306 0 c16 0 39 5 52 10 19 9 36 4 101 -32 79 -43 101 -65 91 -91
-6 -16 -103 -27 -230 -27 l-73 0 5 28 c4 21 -1 33 -20 51 -30 28 -32 47 -11
78 16 22 16 22 35 3 11 -11 33 -20 50 -20z"/>
<path d="M1370 5138 c-1 -31 95 -811 98 -793 1 11 -18 188 -43 393 -25 206
-45 380 -45 388 0 12 100 14 698 14 771 0 764 0 890 -65 119 -61 106 -28 149
-385 21 -173 39 -307 41 -298 5 28 -68 611 -79 625 -20 23 -105 72 -174 100
l-70 28 -732 3 c-592 2 -733 0 -733 -10z"/>
<path d="M2152 4700 c0 -19 2 -27 5 -17 2 9 2 25 0 35 -3 9 -5 1 -5 -18z"/>
<path d="M2083 4643 c9 -2 23 -2 30 0 6 3 -1 5 -18 5 -16 0 -22 -2 -12 -5z"/>
<path d="M2193 4643 c9 -2 25 -2 35 0 9 3 1 5 -18 5 -19 0 -27 -2 -17 -5z"/>
<path d="M2152 4580 c0 -19 2 -27 5 -17 2 9 2 25 0 35 -3 9 -5 1 -5 -18z"/>
<path d="M1930 4397 c-34 -17 -39 -60 -8 -81 20 -14 86 -16 589 -16 536 0 567
1 582 18 23 26 21 58 -5 76 -20 14 -91 16 -578 16 -426 0 -561 -3 -580 -13z
m1151 -7 c11 -6 19 -21 19 -35 0 -14 -8 -29 -19 -35 -13 -6 -213 -10 -580 -10
-495 0 -561 2 -575 16 -25 24 -18 55 14 67 28 11 1120 8 1141 -3z"/>
<path d="M3162 4340 c0 -19 6 -75 13 -125 7 -49 13 -74 13 -55 0 19 -6 76 -13
125 -7 50 -13 74 -13 55z"/>
<path d="M1471 4310 c-3 -25 93 -816 97 -798 3 15 -83 761 -92 798 -3 13 -4
13 -5 0z"/>
<path d="M1690 4180 c-11 -11 -20 -27 -20 -35 0 -8 9 -24 20 -35 19 -19 32
-20 258 -18 l237 2 -236 6 c-179 4 -240 8 -252 19 -21 17 -21 35 -1 55 14 14
80 16 580 16 553 0 564 0 584 -20 16 -16 18 -25 10 -40 -6 -11 -12 -21 -13
-22 -1 -1 -153 -5 -337 -8 l-335 -6 322 -2 c373 -2 382 -1 373 68 -4 39 -14
40 -602 40 -555 0 -568 0 -588 -20z"/>
<path d="M1952 3978 c-18 -18 -15 -53 6 -71 17 -15 72 -17 586 -17 372 0 574
4 587 10 22 12 26 59 7 78 -17 17 -1169 17 -1186 0z m1186 -26 c8 -54 25 -52
-592 -52 -592 0 -596 0 -596 40 0 40 2 40 605 38 l580 -3 3 -23z"/>
<path d="M1736 3784 c-19 -18 -21 -55 -4 -72 8 -8 55 -11 158 -10 l145 2 -150
6 c-148 5 -150 5 -153 29 -2 13 1 28 8 35 7 7 86 13 228 16 l217 6 -217 2
c-185 2 -219 0 -232 -14z"/>
<path d="M2632 3790 c185 -3 271 -9 279 -17 7 -7 9 -22 5 -37 l-6 -26 -283 -2
-282 -3 279 -2 c197 -2 283 0 292 8 20 16 17 53 -4 72 -16 15 -49 17 -283 15
l-264 -2 267 -6z"/>
<path d="M1573 3455 c0 -22 2 -30 4 -17 2 12 2 30 0 40 -3 9 -5 -1 -4 -23z"/>
<path d="M3792 4714 c-29 -20 -29 -59 2 -79 20 -14 88 -15 545 -13 504 3 523
4 537 22 19 27 18 42 -6 66 -19 19 -33 20 -538 20 -452 0 -520 -2 -540 -16z
m1070 -11 c24 -21 23 -39 -4 -57 -20 -14 -87 -16 -531 -16 -331 0 -515 4 -528
10 -24 13 -25 56 -1 69 11 7 201 11 531 11 465 0 516 -2 533 -17z"/>
<path d="M3950 4501 c-15 -28 -12 -46 8 -64 17 -15 68 -17 535 -17 455 0 517
2 531 16 19 18 21 55 4 72 -9 9 -143 12 -540 12 -511 0 -528 -1 -538 -19z
m1078 -19 c8 -53 20 -52 -534 -52 -453 0 -514 2 -528 16 -9 8 -16 21 -16 28 0
35 13 36 550 34 l525 -3 3 -23z"/>
<path d="M3838 4319 c-21 -12 -24 -59 -6 -77 9 -9 63 -11 193 -10 l180 2 -185
6 c-184 5 -185 5 -188 28 -8 54 -30 52 648 52 620 0 627 0 646 -21 14 -15 16
-24 7 -37 -9 -15 -52 -17 -464 -22 l-454 -5 457 -3 c443 -2 458 -1 468 17 14
28 13 38 -10 61 -20 20 -33 20 -647 20 -408 -1 -634 -4 -645 -11z"/>
<path d="M4510 3850 c-11 -11 -20 -28 -20 -38 0 -24 31 -52 58 -52 47 0 69 61
34 93 -25 22 -48 21 -72 -3z m61 0 c21 -12 25 -50 7 -68 -18 -18 -56 -14 -68
7 -14 27 -13 37 6 55 18 19 28 20 55 6z"/>
<path d="M4600 3655 c-14 -17 -5 -51 16 -59 22 -8 54 11 54 32 0 38 -46 56
-70 27z m57 -11 c3 -8 -2 -23 -11 -32 -15 -15 -17 -15 -32 0 -21 21 -11 48 16
48 11 0 23 -7 27 -16z"/>
<path d="M4552 3478 c2 -15 10 -23 23 -23 13 0 21 8 23 23 3 18 -1 22 -23 22
-22 0 -26 -4 -23 -22z"/>
<path d="M3282 2737 c-24 -26 -28 -57 -10 -75 7 -7 35 -11 68 -10 l55 1 -60 6
c-72 7 -82 27 -39 72 15 16 23 29 18 29 -6 0 -20 -10 -32 -23z"/>
<path d="M2137 2674 c-4 -4 -7 -37 -7 -74 0 -56 3 -70 23 -87 42 -38 58 -42
102 -25 63 24 65 28 65 108 l0 74 -74 0 c-41 0 -81 2 -88 5 -8 3 -17 2 -21 -1z
m173 -80 c0 -62 -1 -65 -32 -84 -44 -27 -80 -25 -112 5 -23 21 -26 32 -26 87
l0 63 85 -3 85 -3 0 -65z"/>
<path d="M4953 1183 c9 -2 25 -2 35 0 9 3 1 5 -18 5 -19 0 -27 -2 -17 -5z"/>
<path d="M5227 1183 c-3 -5 12 -8 33 -8 21 -1 36 3 34 7 -6 10 -61 11 -67 1z"/>
<path d="M3220 6299 c-228 -11 -413 -44 -630 -114 -114 -37 -344 -134 -336
-142 2 -2 48 16 102 40 193 87 388 145 621 184 86 14 163 18 383 18 263 0 344
-6 519 -40 24 -5 24 -5 4 4 -75 33 -436 60 -663 50z"/>
<path d="M5672 6160 c0 -19 2 -27 5 -17 2 9 2 25 0 35 -3 9 -5 1 -5 -18z"/>
<path d="M3730 6141 c-16 -31 -12 -49 15 -67 23 -15 27 -15 50 0 43 28 26 86
-25 86 -19 0 -33 -7 -40 -19z m70 -6 c23 -28 -9 -72 -45 -59 -36 14 -24 74 15
74 10 0 23 -7 30 -15z"/>
<path d="M3125 6138 c-140 -15 -326 -57 -468 -105 -76 -26 -146 -53 -155 -60
-9 -7 8 -4 38 8 289 114 575 164 897 157 95 -1 165 0 155 4 -25 10 -372 7
-467 -4z"/>
<path d="M5603 6093 c9 -2 25 -2 35 0 9 3 1 5 -18 5 -19 0 -27 -2 -17 -5z"/>
<path d="M5723 6093 c9 -2 23 -2 30 0 6 3 -1 5 -18 5 -16 0 -22 -2 -12 -5z"/>
<path d="M5672 6040 c0 -19 2 -27 5 -17 2 9 2 25 0 35 -3 9 -5 1 -5 -18z"/>
<path d="M2169 6002 c-13 -23 -21 -27 -59 -27 -41 0 -46 -3 -65 -37 -12 -22
-29 -39 -42 -41 -17 -3 -16 -4 4 -3 22 1 32 9 46 40 17 37 20 38 56 33 44 -5
53 -1 70 31 18 33 9 37 -10 4z"/>
<path d="M2360 5919 c-6 -23 -9 -44 -6 -47 4 -3 27 1 52 9 l46 14 -41 33 -40
32 -11 -41z m45 1 c21 -23 20 -26 -16 -35 -24 -6 -25 -4 -21 24 5 36 12 38 37
11z"/>
<path d="M1924 5865 c-9 -14 -14 -28 -11 -31 3 -3 8 4 12 16 4 12 16 25 28 30
17 7 18 9 5 9 -10 1 -25 -10 -34 -24z"/>
<path d="M4122 5775 c0 -16 2 -22 5 -12 2 9 2 23 0 30 -3 6 -5 -1 -5 -18z"/>
<path d="M4053 5713 c9 -2 25 -2 35 0 9 3 1 5 -18 5 -19 0 -27 -2 -17 -5z"/>
<path d="M4173 5713 c9 -2 23 -2 30 0 6 3 -1 5 -18 5 -16 0 -22 -2 -12 -5z"/>
<path d="M4122 5660 c0 -19 2 -27 5 -17 2 9 2 25 0 35 -3 9 -5 1 -5 -18z"/>
<path d="M5892 5070 c167 -228 287 -483 358 -765 50 -196 71 -348 80 -575 7
-184 7 -184 8 -54 5 399 -89 796 -270 1134 -56 106 -176 286 -209 316 -12 10
3 -15 33 -56z"/>
<path d="M6001 4648 c-1 -4 16 -52 38 -105 99 -250 139 -459 150 -783 l8 -205
1 155 c3 255 -33 492 -108 720 -35 106 -88 235 -89 218z"/>
<path d="M6320 3490 c-1 -30 -5 -79 -9 -107 -4 -29 -4 -53 0 -53 9 0 23 183
16 202 -3 7 -6 -12 -7 -42z"/>
<path d="M6119 3469 c-17 -33 3 -69 39 -69 33 0 52 16 52 45 0 29 -19 45 -52
45 -18 0 -31 -7 -39 -21z m76 0 c4 -5 4 -21 1 -35 -5 -20 -12 -25 -33 -22 -34
4 -51 31 -34 52 15 18 56 21 66 5z"/>
<path d="M6130 3311 l0 -49 40 15 c22 9 40 19 40 23 0 6 -38 36 -67 54 -10 5
-13 -5 -13 -43z m55 -1 c5 -8 -24 -30 -39 -30 -3 0 -6 14 -6 30 0 27 2 30 19
20 11 -5 23 -14 26 -20z"/>
</g>
</svg>
