<?xml version="1.0" encoding="utf-8"?>
<!-- Generator: Adobe Illustrator 16.0.0, SVG Export Plug-In . SVG Version: 6.00 Build 0)  -->
<!DOCTYPE svg PUBLIC "-//W3C//DTD SVG 1.1//EN" "http://www.w3.org/Graphics/SVG/1.1/DTD/svg11.dtd">
<svg version="1.1" id="Camada_1" xmlns="http://www.w3.org/2000/svg" xmlns:xlink="http://www.w3.org/1999/xlink" x="0px" y="0px"
	 width="513.333px" height="307.333px" viewBox="0 0 513.333 307.333" enable-background="new 0 0 513.333 307.333"
	 xml:space="preserve">
<g>
	<g>
		<path fill="#FFFFFF" d="M454.697,152.56c6.148,3.304,12.59,4.976,19.348,4.978c6.322,0,11.902-1.305,16.711-3.937
			c4.805-2.631,8.738-6.246,11.766-10.874c1.889-2.844,3.438-6.689,4.656-11.529l-15.926-4.461
			c-1.551,4.477-3.656,7.901-6.346,10.256c-3.791,3.406-8.111,5.114-12.941,5.114c-3.223-0.001-6.205-1.057-8.973-3.17
			c-2.752-2.139-4.93-5.421-6.5-9.897c-1.568-4.453-2.357-9.647-2.357-15.582c0.002-9.378,1.713-16.987,5.127-22.811
			c3.422-5.799,8.195-8.717,14.322-8.716c4.102,0.001,7.621,1.191,10.566,3.568c2.926,2.386,4.965,5.906,6.119,10.57l16.104-4.516
			c-1.289-4.566-3.039-8.238-5.217-11.027c-3.164-3.979-7.135-7.054-11.939-9.226c-4.832-2.189-9.744-3.262-14.77-3.263
			c-6.838-0.001-13.33,1.78-19.498,5.354c-6.168,3.595-10.887,8.975-14.123,16.136c-3.238,7.166-4.875,15.433-4.875,24.771
			c-0.002,8.973,1.588,16.751,4.768,23.365C443.902,144.255,448.572,149.23,454.697,152.56z"/>
		<path fill="#FFFFFF" d="M349.945,106.853c1.727-3.711,2.594-7.769,2.594-12.165c0-5.666-1.49-10.454-4.518-14.371
			c-3.002-3.922-6.951-6.667-11.838-8.246c-4.014-1.294-9.736-2.054-17.154-2.289c-1.621-0.049-3.314-0.081-5.096-0.084
			l-27.848-0.003l-0.012,87.82l17.502,0.002l0.006-35.474l15.412,0.002h0.027c6.348,0.001,11.881-0.937,16.545-2.803
			c2.771-1.095,5.52-2.723,8.254-4.898C346.564,112.173,348.609,109.675,349.945,106.853z M330.977,103.697
			c-3.246,2.628-7.23,4.039-11.953,4.25c-0.424,0.024-0.852,0.032-1.287,0.032l-14.152-0.002l0.002-23.366l14.605,0.003
			c0.281,0,0.566,0,0.836,0.008c5.434,0.096,9.34,1.109,11.717,3.03c2.488,2.037,3.727,4.673,3.727,7.938
			C334.471,99.124,333.307,101.812,330.977,103.697z"/>
		<path fill="#FFFFFF" d="M427.809,124.77l0.008-55.054l-17.422-0.002l-0.008,52.576c0,4.538-0.807,8.301-2.396,11.258
			c-1.59,2.962-3.711,5.092-6.363,6.413c-2.633,1.314-5.676,1.968-9.072,1.968c-5.342-0.002-9.563-1.641-12.664-4.907
			c-3.105-3.254-4.656-8.166-4.654-14.736l0.006-52.576l-17.383-0.003l-0.008,55.495c0,6.495,0.928,11.661,2.771,15.508
			c1.824,3.86,4.145,7.016,6.891,9.491c2,1.769,4.498,3.188,7.486,4.288c5.633,2.016,11.723,3.04,18.24,3.04
			c11.314,0,19.895-2.844,25.766-8.492C424.879,143.367,427.807,135.28,427.809,124.77z"/>
		<polygon fill="#FFFFFF" points="442.322,172.721 454.492,164.389 442.676,164.389 442.322,164.741 434.672,172.836 
			442.17,172.836 		"/>
		<path fill="#FFFFFF" d="M375.822,176.918c-2.945-1.479-6.756-2.268-11.43-2.377c-0.389-0.01-0.781-0.016-1.178-0.016
			c-3.191,0-6.137,0.518-8.855,1.574c-2.723,1.057-5.096,2.564-7.131,4.535c-2.047,1.967-3.568,4.096-4.553,6.369
			c-1.836,4.127-2.758,8.777-2.76,13.967c0,8.611,2.26,15.156,6.797,19.652c4.49,4.451,10.389,6.697,17.672,6.727h0.135
			c7.252,0,13.1-2.195,17.529-6.605c4.416-4.414,6.629-10.918,6.629-19.504c0.002-6.33-1.104-11.459-3.299-15.35
			C383.176,181.989,379.998,178.997,375.822,176.918z M373.754,214.409c-2.453,2.713-5.506,4.07-9.182,4.07h-0.188
			c-3.768-0.043-6.873-1.402-9.316-4.09c-2.473-2.727-3.709-7.195-3.709-13.416c0.002-6.338,1.23-10.881,3.668-13.623
			c2.438-2.756,5.521-4.127,9.266-4.127h0.098c3.434,0.021,6.293,1.105,8.559,3.256c2.973,2.813,4.463,7.678,4.463,14.584
			C377.41,207.247,376.184,211.696,373.754,214.409z"/>
		<path fill="#FFFFFF" d="M498.738,198.825c-2.441-1.439-6.055-2.701-10.813-3.789c-4.76-1.078-7.73-2.135-8.906-3.156
			c-1.209-1.018-1.814-2.236-1.814-3.65c0-1.779,0.729-3.291,2.197-4.537c1.451-1.26,3.406-1.881,5.842-1.881
			c1.988,0.002,3.781,0.465,5.4,1.395c1.621,0.93,3.203,2.404,4.748,4.426l9.121-3.424c-1.16-1.814-2.316-3.246-3.473-4.287
			c-1.789-1.57-3.967-2.861-6.541-3.869c-2.566-1.01-5.494-1.508-8.773-1.508c-5.775-0.002-10.316,1.395-13.625,4.191
			c-3.316,2.801-4.957,6.336-4.957,10.619c-0.002,3.988,1.639,7.336,4.951,10.033c2.66,2.156,7.061,3.969,13.211,5.453
			c4.529,1.102,7.438,2.258,8.73,3.451c1.293,1.203,1.936,2.582,1.936,4.158c-0.002,1.803-0.82,3.352-2.439,4.67
			c-1.619,1.311-3.869,1.971-6.775,1.971c-2.412,0-4.5-0.518-6.281-1.525c-1.768-1.018-3.568-2.822-5.416-5.416l-9.742,3.486
			c1.287,2.256,2.551,4.012,3.807,5.289c1.932,1.963,4.295,3.535,7.076,4.691c2.795,1.176,6.08,1.748,9.873,1.75
			c4.004,0,7.557-0.699,10.65-2.09c3.088-1.4,5.426-3.395,6.998-5.98c1.57-2.598,2.348-5.172,2.348-7.752
			c0-2.42-0.604-4.789-1.826-7.107C503.02,202.135,501.189,200.266,498.738,198.825z"/>
		<path fill="#FFFFFF" d="M308.738,207.971l14.484,0.002c-0.412,1.721-0.895,3.107-1.461,4.145c-0.57,1.018-1.412,2.043-2.537,3.078
			c-1.123,1.035-2.598,1.914-4.426,2.611c-1.816,0.715-3.668,1.068-5.551,1.068c-2.521,0-4.871-0.648-7.072-1.932
			c-2.189-1.279-3.84-3.148-4.963-5.578c-1.107-2.438-1.666-6.006-1.666-10.676c0.002-6.672,1.354-11.268,4.049-13.838
			c2.693-2.559,6.121-3.828,10.305-3.828c3.52,0,6.402,0.977,8.625,2.914c1.543,1.385,2.811,3.436,3.795,6.178l8.652-2.715
			c-0.842-2.861-1.877-5.094-3.111-6.713c-1.908-2.523-4.416-4.516-7.545-5.977c-3.125-1.467-6.748-2.191-10.85-2.191
			c-4.494-0.002-8.709,0.938-12.66,2.82c-3.945,1.887-7.063,4.807-9.326,8.793c-2.283,3.961-3.416,9.238-3.418,15.795
			c0,6.279,1.088,11.248,3.25,14.898c2.15,3.639,4.943,6.307,8.344,7.99c3.406,1.682,6.963,2.523,10.68,2.525
			c3.625,0,7.029-0.758,10.18-2.285c2.277-1.068,4.514-2.717,6.705-4.924v6.217h8.764l0.002-25.98l-23.246-0.004L308.738,207.971z"
			/>
		<rect x="396.086" y="175.527" fill="#FFFFFF" width="10.865" height="50.832"/>
		<path fill="#FFFFFF" d="M438.82,175.534l-5.754-0.002l-17.982,50.83h10.736l4.189-11.928l8.807,0.002h8.912l4.195,11.93
			l10.715,0.002l-18.027-50.834H438.82z M438.816,207.03l-6.299-0.002l6.303-17.67l0.033-0.082l6.264,17.754H438.816z"/>
	</g>
	<path fill-rule="evenodd" clip-rule="evenodd" fill="#FFFFFF" d="M73.503,78.457l-0.458-0.105c-0.934-0.212-3.135-0.671-3.977-0.74
		l-0.448-0.037l0.101-0.437c0.293-1.249,0.596-2.494,0.902-3.735c0.494-2.017,1.002-4.097,1.438-6.139l-0.037,0.003
		c-0.877,0.031-2.078,0.077-2.814,0.188l-0.451,0.069v-0.452c0-1.407,0.035-1.806,0.205-3.042l0.053-0.381L68.4,63.7
		c0.405,0.053,1.059,0.181,1.715,0.312c0.373,0.073,0.751,0.15,1.076,0.209c-0.049-0.607-0.086-1.228-0.119-1.832
		c-0.051-0.852-0.098-1.67-0.176-2.374l-0.039-0.354l0.349-0.07c0.421-0.083,0.94-0.13,1.464-0.13c0.502,0,1.454,0.046,2.209,0.337
		l0.312,0.12l-0.071,0.324c-0.242,1.074-0.425,2.243-0.604,3.373L74.4,64.315l1.217-0.093c0.65-0.048,1.287-0.097,2.057-0.161
		l0.434-0.035l-0.01,0.43c-0.027,1.152-0.158,2.053-0.312,3.095l-0.103,0.711l-0.43-0.121c-0.787-0.218-2.101-0.459-3.164-0.643
		l-0.067,1.193c-0.17,3.098-0.346,6.169-0.496,9.301L73.503,78.457z M69.583,76.891c0.911,0.127,2.339,0.422,3.183,0.604
		c0.146-2.973,0.311-5.899,0.478-8.847l0.115-2.06l0.431,0.074c0.973,0.163,2.297,0.396,3.244,0.622
		c0.119-0.818,0.225-1.559,0.266-2.415c-0.582,0.047-1.098,0.086-1.621,0.125l-2.211,0.171l0.271-1.669
		c0.164-1.024,0.332-2.079,0.541-3.078c-0.682-0.179-1.742-0.23-2.569-0.122c0.06,0.625,0.099,1.327,0.146,2.048
		c0.043,0.763,0.088,1.552,0.16,2.307l0.042,0.489l-0.491-0.071c-0.406-0.06-1.006-0.18-1.605-0.298
		c-0.455-0.089-0.91-0.18-1.275-0.241c-0.104,0.795-0.137,1.215-0.143,2.102c0.749-0.079,1.714-0.113,2.451-0.141l1.037-0.042
		l-0.102,0.489c-0.459,2.206-1.014,4.464-1.547,6.646C70.113,74.684,69.844,75.787,69.583,76.891z M50.021,38.075
		c-1.795,2.092-3.666,4.243-4.887,5.715c3.475,3.33,6.47,6.031,10.071,9.717c3.321-6.379,11.853-20.307,19.618-13.769
		c-5.255-4.465-7.943-5.552-11.361-7.032C60.119,31.255,53.701,33.787,50.021,38.075z M53.352,56.1
		c0.492-0.51,1.145,0.05,0.717,0.592c-1.975,2.511-4.885,5.388-6.871,7.828c-0.563-0.212-0.762-0.49-0.951-0.847
		C48.757,61.676,51.547,58.541,53.352,56.1z M42.206,45.136c0.495-0.511,1.154,0.046,0.72,0.591
		c-1.972,2.509-4.886,5.386-6.87,7.828c-0.563-0.215-0.766-0.491-0.949-0.846C37.617,50.707,40.412,47.567,42.206,45.136z
		 M43.485,46.573c-1.792,2.439-4.569,5.646-7.076,7.644c0.189,0.362,0.387,0.635,0.947,0.846c1.989-2.434,4.881-5.387,6.854-7.891
		C44.641,46.625,43.983,46.061,43.485,46.573z M44.875,47.969c-1.796,2.438-4.672,5.692-7.188,7.698
		c0.192,0.357,0.394,0.635,0.953,0.839c1.987-2.435,4.984-5.437,6.963-7.946C46.029,48.016,45.371,47.461,44.875,47.969z
		 M46.313,49.295c-1.797,2.441-4.723,5.856-7.235,7.854c0.188,0.357,0.387,0.64,0.95,0.843c1.989-2.438,5.033-5.593,7.01-8.103
		C47.465,49.347,46.813,48.785,46.313,49.295z M47.75,50.681c-1.797,2.442-4.722,5.875-7.232,7.874
		c0.19,0.352,0.391,0.635,0.948,0.846c1.991-2.435,5.032-5.616,7.005-8.125C48.902,50.732,48.248,50.17,47.75,50.681z
		 M49.242,52.129c-1.793,2.435-4.775,5.752-7.289,7.747c0.192,0.361,0.393,0.636,0.952,0.849c1.991-2.438,5.085-5.5,7.062-8.002
		C50.391,52.177,49.74,51.616,49.242,52.129z M50.682,53.546c-1.791,2.439-4.724,5.667-7.238,7.662
		c0.192,0.36,0.385,0.637,0.951,0.846c1.99-2.442,5.037-5.403,7.012-7.917C51.838,53.593,51.18,53.034,50.682,53.546z
		 M52.049,54.812c-1.799,2.436-4.658,5.626-7.171,7.628c0.192,0.355,0.396,0.632,0.949,0.841c1.989-2.44,4.976-5.366,6.946-7.875
		C53.201,54.862,52.549,54.299,52.049,54.812z M56.055,55.209c-3.778-3.648-8.508-8.106-12.181-11.848
		c-0.459-0.464-1.204,0.374-0.863,0.674c3.628,3.793,8.435,8.463,12.294,12.08C55.545,56.304,56.402,55.448,56.055,55.209z
		 M76.623,42.782c-6.86-7.914-15.568,4.51-19.849,12.352l-1.22-1.202c3.17-5.443,7.258-12.659,13.367-14.981
		C71.869,37.822,75.092,40.397,76.623,42.782z M62.07,31.99c-2.607-0.16-7.23,0.754-10.756,4.107
		c-2.076,1.977-4.147,4.777-6.475,7.37c-0.107-0.095-0.879-0.773-0.868-0.787c2.642-2.982,4.878-6.276,7.917-8.368
		C54.931,32.223,58.584,31.404,62.07,31.99z M62.736,47.298c2.031,5.333,2.564,9.212,2.547,15.01
		c-0.015,5.884-1.101,12.07-1.639,17.891c-0.3,3.207-0.973,11.417,0.314,16.697c-0.494-8.131,0.932-16.712,1.713-24.69
		c0.607-6.239,0.953-12.644-0.061-18.863c-0.408-2.493-1.037-4.944-1.929-7.305C63.227,46.56,62.695,47.189,62.736,47.298z
		 M64.165,67.387l-10.735-8.62c0.513-0.579,1.044-1.208,1.6-1.908c0.797,0.443,1.981-0.901,2.012-1.324
		c0.33,0.051,3.949-6.419,5.15-7.376c1.775,4.908,2.222,8.868,2.207,14.149C64.395,64.004,64.305,65.697,64.165,67.387z
		 M25.465,43.743c0.155,0.042,0.31,0.103,0.465,0.183c-0.302,0.316-0.593,0.628-0.876,0.944c-0.387,0.419-0.77,0.852-1.164,1.321
		c-0.185-0.236-0.308-0.488-0.358-0.744c-0.058-0.401,0.09-0.743,0.207-0.937c0.3-0.497,0.828-0.806,1.382-0.806
		c0.109,0,0.221,0.012,0.33,0.037h0.003L25.465,43.743L25.465,43.743z M24.354,47.105c0.124-0.059,0.235-0.146,0.324-0.253
		c0.574-0.7,1.232-1.432,2.013-2.24c0.092-0.097,0.161-0.211,0.205-0.334c0.738-0.756,1.543-1.53,2.486-2.391
		c0.157-0.146,0.336-0.205,0.517-0.205c0.747,0,1.572,0.987,1.542,1.004c-0.074,0.046-0.151,0.098-0.23,0.153
		c-1.878,1.233-4.816,4.339-6.501,6.755c-0.506,0.683-0.911,1.301-1.158,1.787l-0.002,0c-0.08,0-1.671-1.08-1.02-1.939
		C23.178,48.575,23.772,47.812,24.354,47.105z M25.024,42.746c-0.727,0-1.377,0.315-1.878,0.912
		c-0.582,0.683-0.735,1.508-0.458,2.297c0.047,0.143,0.107,0.286,0.185,0.426c0.022,0.04,0.048,0.085,0.072,0.135
		c-2.144-0.519-3.467-3.227-1.809-4.935c0.529-0.55,1.235-0.798,1.96-0.798c1.372,0,2.799,0.891,3.181,2.267l-0.016-0.008
		l-0.019-0.01c-0.172-0.083-0.344-0.146-0.514-0.188l-0.012-0.002l-0.007-0.003C25.48,42.777,25.25,42.746,25.024,42.746z
		 M25.16,50.578c1.701-2.406,5.141-6.07,6.785-7.099l0.053-0.036c0.165-0.09,0.314-0.156,0.445-0.194
		c0.257,0.133,0.505,0.303,0.732,0.492l0.013-0.011l5.456,4.379c-1.332,1.473-2.702,2.887-3.889,3.824
		c-0.079,0.067-0.189,0.313-0.254,0.393c-0.815,1.076,11.673,12.992,12.865,12.757c0.107-0.022,0.42-0.358,0.51-0.449
		c1.509-1.776,3.095-3.186,4.919-5.166l11.27,9.047c-0.365,3.872-0.947,7.731-1.304,11.599c-0.109,1.172-0.214,2.472-0.296,3.854
		c-2.19-1.686-3.555-2.744-3.632-2.825L25.861,53.62c-0.484-0.32-1.121-0.834-1.505-1.398C24.425,51.831,24.72,51.254,25.16,50.578z
		 M30.654,58.968l29.545,24.659l1.075,4.555l-5.765,6.973l-3.643-3.032l-4.857,5.711l2.746,2.292l-8.14,9.579l-5.5-4.586
		l-0.64-0.531l-6.977-5.82l6.927-8.153l4.142,3.449l4.809-5.653l-4.142-3.449l2.459-2.892l-5.71-4.757l-2.456,2.884l-4.133-3.448
		l-4.811,5.656l4.134,3.447l-6.93,8.156l-0.778-0.651l-4.583-3.817l-8.651-7.215l7.475-8.787L21,77.498l4.764-5.557l-4.774-3.981
		l6.994-8.229L30.654,58.968z M135.548,56.835l0.844,1.077l0.847,1.074l-0.847,1.075l-0.847,1.07l-0.846-1.07l-0.845-1.076
		l0.845-1.074L135.548,56.835z M163.273,49.661c0.858,2.412,1.604,5.249,1.811,7.505c-2.263-4.107-25.224-4.182-29.436-4.192
		c-4.212,0.009-27.166,0.079-29.432,4.185c0.205-2.256,0.947-5.093,1.81-7.505c0.548,0.738,1.202,1.398,1.948,1.936
		c4.111,2.987,8.723,1.386,12.099-1.739c0.698,0.891,1.636,1.454,2.796,1.971c1.603,0.716,4.076,0.682,5.782,0.393
		c2.14-0.354,3.533-1.416,5.001-2.75c1.466,1.333,2.848,2.396,4.995,2.751c1.711,0.29,4.18,0.324,5.781-0.392
		c1.161-0.516,2.095-1.079,2.801-1.969c3.369,3.127,7.978,4.729,12.096,1.742C162.074,51.058,162.724,50.398,163.273,49.661z
		 M121.182,62.872c0.988,0,1.796-0.794,1.796-1.774c0-0.977-0.806-1.775-1.794-1.775c-0.988-0.001-1.788,0.798-1.79,1.774
		C119.394,62.076,120.195,62.872,121.182,62.872z M150.165,62.875c0.986,0,1.791-0.794,1.791-1.772c0-0.975-0.805-1.776-1.791-1.776
		s-1.793,0.799-1.793,1.775C148.372,62.08,149.179,62.875,150.165,62.875z M135.744,53.672c1.606-0.007,3.221,0.997,3.088,3.115
		c0,0.011-0.136,0.397,0.029,0.327c4.375-2.012,7.27,5.906-0.486,5.417c-0.619-0.034-0.938-0.278-0.834,0.012
		c1.578,4.653,10.021,5.033,11.527,0.452c0.325,0.182,0.701,0.288,1.097,0.288c0.389,0,0.751-0.097,1.066-0.273
		c0.808,3.048,6.593,6.571,10.116,3.124c0.654-0.678,1.025-1.452,1.094-1.747c0.045-0.2-1.152-0.135-1.478-0.635
		c-2.611-3.962,4.042-9.313,4.348-5.07c0.048,0.659,0.389,0.95,0.619-0.223c0.572-2.9,5.231-2.81,5.017-2.4
		c-0.005,0.014-0.887,0.646-1.802,1.539c-1.95,1.905-2.58,4.276-3.539,6.603c-0.426,5.873-8.229,11.265-15.457,3.878
		c-0.168-0.17-0.184-0.321-0.223-0.351c-0.006-0.008-0.016-0.009-0.022-0.009l-0.006,0.001c-0.155,0.031-0.294,1.381-3.212,2.685
		c-1.437,0.649-3.79,0.564-5.229,0.322c-2.408-0.397-4.493-2.029-5.719-3.17c-1.221,1.141-3.315,2.771-5.723,3.169
		c-1.448,0.24-3.797,0.325-5.226-0.324c-2.928-1.305-3.061-2.656-3.212-2.685c-0.007,0-0.01-0.002-0.011-0.002
		c-0.01,0-0.013,0.002-0.02,0.007c-0.044,0.031-0.056,0.183-0.222,0.353c-7.226,7.383-15.037,1.989-15.457-3.883
		c-0.955-2.326-1.59-4.698-3.535-6.607c-0.921-0.888-1.801-1.522-1.809-1.537c-0.213-0.409,4.447-0.498,5.02,2.403
		c0.229,1.172,0.568,0.883,0.615,0.223c0.304-4.244,6.957,1.108,4.354,5.07c-0.324,0.502-1.526,0.435-1.485,0.636
		c0.07,0.294,0.44,1.068,1.1,1.748c3.498,3.424,9.234-0.035,10.097-3.071c0.29,0.143,0.614,0.222,0.956,0.222
		c0.442,0,0.857-0.126,1.201-0.344c1.455,4.639,9.963,4.282,11.554-0.393c0.096-0.288-0.216-0.045-0.838-0.01
		c-7.757,0.488-4.86-7.431-0.479-5.417c0.158,0.072,0.028-0.314,0.028-0.326C132.51,54.667,134.137,53.664,135.744,53.672z
		 M135.548,56.423l-2.021,2.562l2.019,2.558l2.014-2.557L135.548,56.423z M121.903,43.18c0.989,0,1.796-0.794,1.796-1.772
		c0-0.979-0.805-1.775-1.796-1.775c-0.983-0.001-1.788,0.796-1.788,1.775C120.115,42.385,120.918,43.178,121.903,43.18z
		 M149.267,43.182c0.988,0,1.796-0.793,1.796-1.771c0-0.979-0.808-1.776-1.796-1.776c-0.986,0-1.789,0.796-1.789,1.776
		C147.478,42.389,148.28,43.182,149.267,43.182z M135.549,37.385l0.845,1.075l0.847,1.08l-0.847,1.077l-0.845,1.073l-0.848-1.075
		l-0.845-1.075l0.845-1.08L135.549,37.385z M135.652,48.164c1.222,1.142,2.745,2.715,5.149,3.117
		c1.445,0.238,3.791,0.321,5.233-0.314c2.919-1.307,2.893-2.665,3.048-2.692c0,0,0.002,0,0.012,0c0.004,0,0.011,0,0.021,0.008
		c0.039,0.029,0.053,0.181,0.215,0.35c7.228,7.384,14.388,1.998,14.81-3.879c0.964-2.325,1.597-4.699,3.545-6.602
		c0.913-0.896,1.799-1.521,1.804-1.54c0.211-0.406-4.447-0.497-5.021,2.404c-0.225,1.17-0.566,0.878-0.611,0.221
		c-0.308-4.244-6.963,1.103-4.358,5.066c0.328,0.5,1.527,0.442,1.485,0.638c-0.069,0.299-0.44,1.07-1.097,1.746
		c-3.622,3.547-9.03-0.276-9.521-3.379c-0.331,0.182-0.7,0.285-1.099,0.285c-0.339,0-0.663-0.073-0.953-0.215
		c-1.323,4.768-9.185,4.512-10.779-0.205c-0.107-0.282,0.219-0.041,0.837-0.005c7.754,0.489,4.859-7.428,0.479-5.417
		c-0.156,0.074-0.025-0.316-0.025-0.328c0.134-2.117-1.558-3.768-3.171-3.762c-1.606-0.006-3.31,1.644-3.175,3.761
		c0,0.012,0.131,0.402-0.028,0.328c-4.381-2.011-7.279,5.904,0.481,5.417c0.618-0.035,0.938-0.275,0.83,0.006
		c-1.601,4.736-9.519,4.97-10.792,0.147c-0.314,0.169-0.679,0.269-1.067,0.269c-0.346,0-0.681-0.079-0.976-0.223
		c-0.555,3.092-5.913,6.839-9.514,3.315c-0.656-0.677-1.025-1.446-1.097-1.746c-0.042-0.195,1.156-0.138,1.485-0.638
		c2.605-3.962-4.049-9.312-4.354-5.068c-0.047,0.659-0.391,0.95-0.617-0.22c-0.57-2.903-5.229-2.812-5.018-2.406
		c0.008,0.019,0.891,0.646,1.809,1.541c1.943,1.902,2.577,4.279,3.535,6.602c0.418,5.878,7.577,11.267,14.808,3.884
		c0.167-0.168,0.182-0.321,0.222-0.348c0.005-0.01,0.016-0.01,0.02-0.01s0.009,0,0.009,0c0.149,0.028,0.128,1.386,3.053,2.692
		c1.431,0.638,3.785,0.555,5.226,0.318C132.904,50.879,134.432,49.305,135.652,48.164z M135.549,36.979l2.015,2.56l-2.015,2.563
		l-2.021-2.563L135.549,36.979z M159.356,89.096c-0.621,1.142-1.3,2.273-2.04,3.398c0.669-1.051,1.348-2.191,1.985-3.356
		c-0.19,0.141-0.392,0.264-0.606,0.375C158.93,89.39,159.149,89.25,159.356,89.096z M112.073,89.063v-0.002
		c0.102,0.076,0.206,0.149,0.313,0.219C112.279,89.211,112.176,89.139,112.073,89.063z M150.312,80.971
		c0.195-0.324,0.305-0.702,0.305-1.105c0-1.201-0.988-2.177-2.206-2.177c-1.211,0-2.205,0.976-2.205,2.177
		c0,0.389,0.104,0.754,0.285,1.07c-0.73,3.613-5.091,4.434-7.049,1.923c2.295-0.043,4.874-0.896,5.044-3.539
		c0.079-1.279-0.551-2.565-1.579-3.34c-0.855-0.646-1.858-0.877-2.856-0.741c-0.151-0.784-0.549-1.43-1.104-1.923
		c3.585,0.052,7.174,0.188,10.742,0.472c1.466,0.113,6.034,0.511,9.454,1.346c-1.419,0.714-2.628,2.414-3.031,3.617
		c-0.064,0.212-0.126,0.434-0.168,0.647c-0.249,1.234-0.038,2.45,0.658,3.51c0.261,0.398,0.574,0.573,0.924,0.684
		c-0.147,0.206-0.309,0.392-0.423,0.517c-1.629,1.593-3.553,1.449-5.171-0.049c-0.8-0.739-1.545-1.906-1.61-3.013v-0.038
		L150.312,80.971z M124.954,80.741c0.12-0.268,0.187-0.566,0.187-0.878c0-1.203-0.987-2.179-2.201-2.179
		c-1.212,0-2.204,0.976-2.204,2.177c0,0.47,0.152,0.904,0.407,1.261c-0.154,1.755-1.894,3.672-3.625,4.045
		c-1.236,0.267-2.286-0.221-3.16-1.068c-0.115-0.122-0.268-0.313-0.411-0.513c0.343-0.112,0.66-0.286,0.925-0.684
		c0.832-1.267,0.951-2.738,0.485-4.158c-0.4-1.204-1.609-2.904-3.03-3.619c3.422-0.833,7.993-1.231,9.462-1.344
		c3.563-0.28,7.152-0.418,10.734-0.468c-0.555,0.493-0.952,1.139-1.103,1.921c-0.998-0.134-2.002,0.095-2.855,0.742
		c-1.025,0.774-1.663,2.062-1.579,3.341c0.167,2.643,2.746,3.498,5.041,3.54c-1.971,2.509-6.321,1.687-7.047-1.931
		C124.969,80.863,124.96,80.802,124.954,80.741z M121.737,63.208c0.545-0.14,1.007-0.479,1.303-0.935
		C122.745,62.729,122.283,63.068,121.737,63.208z M121.626,63.234c0.036-0.008,0.072-0.016,0.107-0.025
		C121.698,63.218,121.662,63.226,121.626,63.234z M121.182,63.278c0.035,0,0.07,0,0.104-0.002
		C121.252,63.277,121.217,63.278,121.182,63.278z M138.802,53.945c3.803,0.049,7.61,0.186,11.4,0.467
		c1.872,0.142,9.119,0.741,12.454,2.104c-1.4,0.726-2.586,2.399-2.987,3.591c-0.065,0.213-0.124,0.434-0.168,0.655
		c-0.252,1.23-0.04,2.444,0.654,3.505c0.27,0.401,0.581,0.58,0.931,0.686c-0.147,0.206-0.305,0.392-0.427,0.514
		c-1.42,1.394-3.333,1.388-5.084,0.639c-1.324-0.573-3.382-2.131-3.475-3.698l-0.004-0.04l-0.004-0.038l-0.018-0.144
		c0.186-0.32,0.292-0.69,0.292-1.085c0-1.202-0.983-2.179-2.198-2.179s-2.209,0.976-2.209,2.178c0,0.415,0.118,0.802,0.323,1.133
		l-0.008,0.056c-0.737,3.663-6.753,3.857-9.087,1.208c2.274-0.057,4.805-0.919,4.974-3.536c0.083-1.286-0.553-2.565-1.573-3.344
		c-0.855-0.648-1.853-0.875-2.845-0.742C139.619,55.115,139.289,54.459,138.802,53.945z M108.744,56.47
		c3.379-1.333,10.499-1.922,12.354-2.06c3.848-0.286,7.72-0.422,11.583-0.469c-0.487,0.515-0.821,1.172-0.946,1.935
		c-0.995-0.134-1.991,0.092-2.846,0.74c-1.029,0.779-1.658,2.058-1.578,3.343c0.168,2.617,2.694,3.48,4.974,3.538
		c-2.348,2.65-8.345,2.453-9.088-1.207c-0.012-0.087-0.018-0.166-0.027-0.247c0.141-0.286,0.219-0.606,0.22-0.945
		c0-1.202-0.99-2.179-2.206-2.179c-1.211,0-2.2,0.976-2.2,2.178c0,0.465,0.147,0.896,0.397,1.25l-0.006,0.02v0.039
		c-0.093,1.566-2.148,3.125-3.481,3.696c-0.804,0.35-1.7,0.55-2.577,0.487c-0.979-0.069-1.814-0.452-2.514-1.132
		c-0.112-0.119-0.268-0.304-0.414-0.509c0.347-0.105,0.664-0.285,0.925-0.686c0.838-1.263,0.958-2.74,0.488-4.16
		C111.398,58.886,110.177,57.173,108.744,56.47z M113.152,40.865c5.234-6.859,12.985-11.987,22.45-15.457h0.003
		c9.405,3.453,17.302,8.485,22.604,15.265c-0.067,0.208-0.124,0.426-0.172,0.646c-0.247,1.228-0.037,2.445,0.653,3.5
		c0.268,0.397,0.588,0.577,0.93,0.685c-0.144,0.203-0.303,0.4-0.423,0.519c-1.438,1.411-3.298,1.418-5.021,0.514
		c-1.218-0.64-2.807-2.118-2.896-3.576v-0.039l-0.002-0.042c-0.017-0.161-0.031-0.305-0.071-0.437
		c0.167-0.308,0.262-0.66,0.262-1.033c0-1.198-0.983-2.186-2.202-2.186c-1.213,0-2.2,0.986-2.2,2.186
		c0,0.473,0.154,0.911,0.414,1.271c-0.006,0.051-0.013,0.105-0.021,0.161c-0.738,3.672-6.121,3.923-8.311,1.286
		c2.284-0.048,4.833-0.902,5.005-3.533c0.084-1.288-0.548-2.563-1.576-3.344c-0.851-0.645-1.85-0.874-2.846-0.738
		c-0.316-1.996-1.953-3.809-4.078-3.804c-2.126-0.005-3.764,1.807-4.088,3.803c-0.992-0.136-1.99,0.093-2.844,0.737
		c-1.026,0.781-1.661,2.058-1.579,3.344c0.169,2.625,2.72,3.487,5.003,3.535c-2.195,2.637-7.568,2.381-8.305-1.288
		c-0.019-0.113-0.026-0.221-0.039-0.323c0.196-0.326,0.309-0.705,0.309-1.109c0-1.198-0.99-2.185-2.208-2.185
		c-1.215-0.001-2.2,0.986-2.2,2.185c0,0.438,0.13,0.846,0.356,1.188c-0.016,0.088-0.026,0.182-0.04,0.281l-0.005,0.042v0.039
		c-0.121,2.08-2.966,4.075-4.99,4.188c-1.146,0.067-2.126-0.345-2.933-1.136c-0.117-0.117-0.268-0.308-0.416-0.511
		c0.349-0.107,0.664-0.287,0.927-0.684C113.398,43.611,113.548,42.219,113.152,40.865z M137.458,22.002l-0.771-0.471l0.003-1.317
		l0.005,0.012l0.002-5.935h3.022v-2.16h-3.022V9.26l-2.184,0v2.87h-3.021v2.16l3.021,0.001v7.39l-0.76,0.321
		c-1.594,0.699-2.709,2.282-2.709,4.121l0.002,0.076c1.378-0.606,2.767-1.167,4.161-1.682l0.511-0.112
		c0.133,0.053,0.28,0.109,0.4,0.158c1.358,0.51,2.707,1.047,4.039,1.637v-0.077C140.158,24.284,139.046,22.701,137.458,22.002z
		 M107.54,76.483l0.026,0.035l-0.01,0.015L107.54,76.483z M161.718,74.956c0.601-0.348,1.854-1.017,2.897-1.188
		c0.346-1.793,0.581-3.81,0.736-5.723c-1.033,1.761-2.655,3.182-4.568,3.942c-3.977,1.595-7.862,0.01-10.798-2.73
		c-0.752,0.903-1.676,1.471-2.904,2.017c-1.604,0.711-4.071,0.672-5.783,0.388c-2.056-0.344-3.968-1.486-5.56-2.835
		c-1.588,1.349-3.506,2.489-5.562,2.834c-1.718,0.283-4.185,0.322-5.787-0.391c-1.228-0.545-2.154-1.113-2.907-2.018
		c-2.937,2.741-6.817,4.323-10.798,2.729c-1.911-0.761-3.524-2.184-4.565-3.944c0.158,1.925,0.396,3.956,0.745,5.756
		c1.406,0.387,2.096,1.044,2.374,1.386c5.741-2.779,22.93-2.835,26.488-2.841h0.016C139.208,72.345,155.525,72.403,161.718,74.956z
		 M135.543,76.592l0.846,1.081l0.847,1.073l-0.847,1.076l-0.846,1.07l-0.846-1.07l-0.848-1.076l0.848-1.074L135.543,76.592z
		 M148.41,81.642c0.991,0,1.797-0.801,1.797-1.776s-0.806-1.774-1.797-1.774c-0.984,0-1.792,0.799-1.792,1.774
		S147.426,81.642,148.41,81.642z M122.939,81.639c0.988,0,1.797-0.801,1.797-1.777c0-0.978-0.809-1.774-1.797-1.774
		s-1.79,0.797-1.79,1.774C121.149,80.838,121.951,81.639,122.939,81.639z M135.735,73.138c1.609-0.006,3.55,0.887,3.422,3.012
		c0,0.008-0.139,0.401,0.021,0.323c4.38-2.012,7.273,5.912-0.482,5.423c-0.619-0.046-0.936-0.286-0.834,0.002
		c1.564,4.622,7.971,4.367,9.405-0.163c0.334,0.199,0.725,0.313,1.143,0.313c0.384,0,0.744-0.101,1.053-0.268
		c0.719,3.018,4.851,6.387,8.319,2.991c0.659-0.682,1.035-1.445,1.1-1.745c0.048-0.197-1.157-0.141-1.482-0.637
		c-2.606-3.965,4.047-9.314,4.351-5.073c0.053,0.663,0.391,0.947,0.62-0.215c0.574-2.906,5.233-2.813,5.019-2.404
		c-0.005,0.014-0.889,0.646-1.806,1.537c-1.947,1.902-2.581,4.275-3.537,6.598c-0.342,0.82-0.69,1.645-1.084,2.513
		c-0.722,1.613-1.704,2.992-3.18,3.539c-3.023,1.131-8.168,0.236-9.501-2.13c-0.116-0.21-0.172-0.321-0.214-0.347
		c-0.007-0.009-0.021-0.012-0.023-0.012h-0.008c-0.151,0.027-0.21,1.343-3.13,2.652c-1.439,0.642-2.977,0.801-4.419,0.555
		c-2.412-0.399-3.528-1.444-4.754-2.584c-1.22,1.14-2.343,2.185-4.755,2.584c-1.443,0.244-2.979,0.085-4.417-0.558
		c-2.922-1.311-2.976-2.624-3.133-2.652c0,0-0.002,0-0.01,0c-0.005,0-0.009,0.002-0.017,0.011c-0.047,0.024-0.107,0.138-0.218,0.347
		c-1.332,2.366-6.476,3.259-9.505,2.127c-1.469-0.546-2.457-1.925-3.177-3.538c-0.388-0.868-0.737-1.693-1.079-2.515
		c-0.959-2.321-1.59-4.695-3.539-6.598c-0.916-0.893-1.797-1.522-1.805-1.539c-0.211-0.406,4.449-0.499,5.019,2.406
		c0.229,1.163,0.571,0.879,0.621,0.216c0.308-4.242,6.955,1.111,4.349,5.075c-0.326,0.496-1.524,0.437-1.485,0.635
		c0.072,0.302,0.442,1.066,1.097,1.747c3.45,3.375,7.554,0.064,8.309-2.933c0.287,0.137,0.612,0.211,0.951,0.211
		c0.459,0,0.887-0.14,1.24-0.38c1.398,4.595,7.849,4.876,9.425,0.233c0.104-0.288-0.216-0.048-0.831-0.002
		c-7.76,0.483-4.863-7.438-0.479-5.424c0.154,0.078,0.022-0.315,0.022-0.323C132.187,74.025,134.123,73.13,135.735,73.138z
		 M135.543,76.183l-2.019,2.563l2.019,2.562l2.014-2.562L135.543,76.183z M159.302,89.138c-1.338,2.452-2.859,4.804-4.123,6.392
		c-0.31-0.8-1.414-1.546-3.123-2.176c-0.587-0.229-1.234-0.432-1.922-0.609c-3.565-0.954-8.688-1.552-14.382-1.554
		c-10.672,0-19.348,2.101-19.511,4.719c-1.299-1.645-2.855-4.234-4.213-6.881c0.396,0.309,0.832,0.554,1.317,0.736
		c2.765,1.035,7.826,0.626,10.061-1.725c0.717,0.825,1.627,1.362,2.761,1.867c1.563,0.697,3.286,0.91,4.976,0.632
		c2.035-0.341,3.229-1.045,4.591-2.231c1.363,1.187,2.554,1.892,4.592,2.232c1.688,0.28,3.416,0.066,4.972-0.632
		c1.135-0.503,2.047-1.04,2.764-1.866c2.234,2.354,7.297,2.762,10.062,1.729C158.552,89.604,158.945,89.399,159.302,89.138z
		 M195.9,78.684l-0.025-0.483c-0.134-2.796-0.285-5.546-0.438-8.31l-0.123-2.216c-1.434,0.25-2.522,0.467-3.162,0.644l-0.451,0.121
		l-0.103-0.739c-0.156-1.045-0.286-1.948-0.314-3.099l-0.011-0.454l0.459,0.039c0.702,0.058,1.293,0.103,1.886,0.146
		c0.443,0.035,0.889,0.066,1.378,0.107l-0.083-0.542c-0.188-1.185-0.383-2.407-0.632-3.527l-0.073-0.338l0.327-0.128
		c0.761-0.296,1.718-0.34,2.218-0.34c0.533,0,1.053,0.047,1.479,0.132l0.367,0.074l-0.041,0.369
		c-0.079,0.703-0.127,1.521-0.178,2.372c-0.034,0.605-0.071,1.225-0.117,1.833c0.316-0.06,0.687-0.133,1.051-0.205
		c0.661-0.133,1.323-0.263,1.732-0.315l0.404-0.052l0.056,0.4c0.159,1.188,0.209,1.597,0.208,3.058v0.472l-0.477-0.072
		c-0.75-0.115-1.948-0.159-2.842-0.19c0.445,2.09,0.967,4.219,1.473,6.283c0.292,1.202,0.585,2.406,0.871,3.615l0.105,0.458
		l-0.471,0.037c-0.788,0.064-2.822,0.48-3.996,0.745L195.9,78.684z M196.08,66.722l0.173,3.126c0.147,2.604,0.293,5.2,0.417,7.832
		c0.937-0.201,2.288-0.478,3.169-0.601c-0.255-1.056-0.513-2.112-0.768-3.165c-0.556-2.238-1.116-4.554-1.584-6.819l-0.102-0.508
		l0.998,0.039c0.753,0.026,1.738,0.061,2.506,0.14c-0.006-0.898-0.043-1.324-0.145-2.076c-0.365,0.063-0.818,0.155-1.272,0.244
		c-0.597,0.12-1.198,0.238-1.607,0.297l-0.514,0.072l0.048-0.512c0.073-0.76,0.122-1.556,0.164-2.328
		c0.043-0.715,0.085-1.408,0.137-2.031c-0.814-0.104-1.856-0.057-2.54,0.123c0.217,1.04,0.393,2.144,0.564,3.214l0.251,1.562
		l-0.524-0.043c-0.708-0.057-1.3-0.103-1.894-0.149c-0.462-0.033-0.922-0.067-1.437-0.108c0.045,0.844,0.144,1.58,0.262,2.388
		c0.757-0.179,1.846-0.387,3.246-0.622L196.08,66.722z M219.054,38.097c1.797,2.091,3.666,4.242,4.889,5.716
		c-3.479,3.328-6.474,6.028-10.073,9.715c-3.322-6.381-11.852-20.312-19.616-13.774c5.256-4.464,7.941-5.55,11.358-7.029
		C208.96,31.275,215.373,33.808,219.054,38.097z M213.019,55.231c-0.348,0.236,0.509,1.093,0.746,0.903
		c3.861-3.614,8.67-8.284,12.299-12.076c0.34-0.297-0.405-1.137-0.863-0.673C221.527,47.127,216.794,51.585,213.019,55.231z
		 M192.451,42.797c1.537-2.385,4.753-4.958,7.701-3.829c6.112,2.324,10.196,9.54,13.366,14.985l-1.22,1.2
		C208.021,47.312,199.315,34.886,192.451,42.797z M207.011,32.01c3.484-0.585,7.135,0.237,10.18,2.325
		c3.04,2.091,5.272,5.385,7.913,8.37c0.01,0.013-0.764,0.691-0.869,0.788c-2.324-2.595-4.396-5.396-6.469-7.373
		C214.236,32.767,209.615,31.851,207.011,32.01z M205.392,46.059c-0.894,2.357-1.519,4.809-1.931,7.304
		c-1.017,6.221-0.674,12.623-0.063,18.862c0.779,7.978,2.2,16.561,1.707,24.69c1.286-5.279,0.618-13.489,0.314-16.697
		c-0.538-5.823-1.62-12.009-1.634-17.891c-0.016-5.798,0.517-9.677,2.552-15.009C206.38,47.208,205.847,46.578,205.392,46.059z
		 M215.721,56.122c1.805,2.441,4.593,5.578,7.102,7.576c-0.188,0.356-0.386,0.635-0.948,0.846c-1.987-2.443-4.898-5.318-6.871-7.831
		C214.575,56.172,215.228,55.613,215.721,56.122z M226.87,45.159c1.792,2.434,4.587,5.573,7.098,7.576
		c-0.186,0.356-0.386,0.635-0.95,0.846c-1.983-2.442-4.897-5.32-6.869-7.83C225.715,45.206,226.372,44.648,226.87,45.159z
		 M225.59,46.597c-0.497-0.51-1.153,0.051-0.729,0.598c1.979,2.504,4.869,5.458,6.858,7.895c0.559-0.213,0.759-0.487,0.949-0.846
		C230.156,52.243,227.38,49.036,225.59,46.597z M224.2,47.994c-0.5-0.512-1.153,0.047-0.727,0.589
		c1.976,2.51,4.973,5.513,6.96,7.949c0.563-0.206,0.761-0.482,0.954-0.84C228.869,53.686,225.997,50.432,224.2,47.994z
		 M222.762,49.318c-0.499-0.508-1.151,0.051-0.725,0.596c1.971,2.507,5.019,5.666,7.008,8.104c0.563-0.206,0.758-0.487,0.947-0.844
		C227.482,55.176,224.555,51.76,222.762,49.318z M221.323,50.705c-0.497-0.511-1.152,0.049-0.725,0.594
		c1.975,2.508,5.013,5.692,7.008,8.126c0.558-0.209,0.76-0.492,0.949-0.846C226.042,56.579,223.118,53.147,221.323,50.705z
		 M219.828,52.151c-0.499-0.514-1.149,0.047-0.723,0.593c1.976,2.503,5.069,5.567,7.058,8.006c0.561-0.215,0.763-0.49,0.955-0.85
		C224.606,57.906,221.627,54.588,219.828,52.151z M218.391,53.569c-0.497-0.511-1.155,0.048-0.724,0.59
		c1.97,2.513,5.021,5.475,7.008,7.917c0.566-0.208,0.76-0.484,0.951-0.844C223.116,59.237,220.184,56.007,218.391,53.569z
		 M216.302,55.427c1.967,2.51,4.95,5.437,6.941,7.876c0.554-0.21,0.755-0.485,0.95-0.841c-2.516-2.002-5.373-5.193-7.167-7.629
		C216.524,54.321,215.871,54.884,216.302,55.427z M238.418,58.995l2.669,0.763l6.992,8.23l-4.771,3.984l4.761,5.555l4.751-3.961
		l7.474,8.789l-8.656,7.212l-4.585,3.818l-0.773,0.652l-6.934-8.161l4.138-3.445l-4.809-5.654l-4.136,3.444l-2.452-2.886
		l-5.716,4.755l2.46,2.896l-4.142,3.444l4.806,5.657l4.141-3.448l6.928,8.154l-6.979,5.817l-0.639,0.534l-5.5,4.582l-8.139-9.579
		l2.746-2.293l-4.855-5.713l-3.641,3.034l-5.767-6.979l1.077-4.553L238.418,58.995z M244.377,49.641
		c-1.7-2.448-4.696-5.613-6.577-6.819c-0.057-0.037-0.113-0.075-0.167-0.108c-0.027-0.017,0.802-1.004,1.544-1.004
		c0.184,0,0.358,0.059,0.518,0.206c1.444,1.322,2.576,2.438,3.622,3.606c1.063,1.153,2.057,2.385,3.233,3.951
		c0.644,0.86-0.948,1.939-1.024,1.939c-0.001,0-0.004,0-0.004,0C245.278,50.928,244.878,50.317,244.377,49.641z M245.982,40.814
		c0.724,0,1.426,0.246,1.958,0.796c1.656,1.709,0.336,4.417-1.813,4.935c0.025-0.05,0.054-0.096,0.073-0.135
		c0.932-1.699-0.478-3.615-2.246-3.615c-0.364,0-0.743,0.082-1.121,0.265l-0.031,0.02C243.183,41.704,244.611,40.814,245.982,40.814
		z M245.226,46.268c-0.412-0.492-0.809-0.942-1.21-1.377c-0.279-0.313-0.567-0.623-0.869-0.939c0.048-0.019,0.097-0.041,0.142-0.069
		c0.221-0.097,0.445-0.149,0.666-0.149c0.546,0,1.089,0.317,1.382,0.807c0.16,0.265,0.375,0.801,0.034,1.423
		c-0.052,0.09-0.075,0.137-0.1,0.186C245.254,46.187,245.238,46.227,245.226,46.268z M204.903,67.406
		c-0.139-1.69-0.229-3.382-0.233-5.079c-0.012-5.279,0.438-9.237,2.213-14.146c1.201,0.954,4.817,7.426,5.15,7.375
		c0.028,0.421,1.211,1.771,2.01,1.325c0.555,0.7,1.087,1.329,1.602,1.908L204.903,67.406z M206.598,83.986
		c-0.081-1.383-0.187-2.683-0.296-3.853c-0.354-3.869-0.935-7.729-1.299-11.601l11.272-9.045c1.824,1.981,3.409,3.392,4.916,5.169
		c0.093,0.09,0.401,0.425,0.509,0.45c1.191,0.231,13.69-11.679,12.871-12.754c-0.065-0.083-0.175-0.329-0.255-0.394
		c-1.186-0.937-2.555-2.353-3.888-3.826l5.458-4.378l0.015,0.012c0.226-0.187,0.475-0.359,0.729-0.493
		c0.132,0.039,0.283,0.107,0.449,0.199c0.023,0.016,0.047,0.031,0.069,0.044c1.627,1.018,5.062,4.679,6.761,7.085
		c0.441,0.678,0.736,1.257,0.805,1.648c-0.383,0.565-1.015,1.078-1.503,1.398l-32.982,27.512
		C210.152,81.243,208.789,82.3,206.598,83.986z M213.074,186.233c-3.87,3.176-8.031,9.16-9.845,13.676
		c-0.206,0.512,0.861,1.473,1.848,2.174c1.16-3.662,3.078-7.086,5.688-10.047c1.631-1.863,3.473-3.477,5.486-4.832
		C215.086,186.512,213.558,185.838,213.074,186.233z M217.791,226.862c1.883,2.869,4.273,2.516,6.773,0.818
		c-0.189-7.154-10.086-10.127-14.563-5.068c-2.213,2.518-2.896,6.422-0.257,9.875c1.744,2.281,5.095,3.504,8.107,3.658
		L217.791,226.862z M224.638,229.518c-0.102,3.699-0.107,8.201-0.25,11.521c-1.295,2.314-2.845,2.586-4.621,2.404
		c-0.134-4.434-0.21-8.896-0.323-13.219C221.228,230.838,223.057,230.391,224.638,229.518z M205.226,273.11
		c1.011,2.186,2.737,3.691,4.072,5.42c-8.351,0.268-9.874-1.34-13.401-4.273C199.455,274.256,201.929,273.881,205.226,273.11z
		 M218.212,242.676c-7.62,9.689-18.515,14.988-29.699,17.383c-2.847,0.607-2.958,3.143-1.232,4.719l7.271,8.188
		c7.386-0.225,14.56-1.605,21.116-7.152C218.67,258.432,218.377,251.055,218.212,242.676z M134.906,298.813
		c-24.894-0.295-50.156-6.291-72.021-18.564c3.453,0.014,6.639-0.59,9.576-2.813c1.078-0.818,2.246-1.727,3.158-2.715
		c1.887-2.023,3.664-3.9,5.546-6.072c17.091,7.619,35.374,11.127,53.743,11.09c18.369,0.041,36.66-3.459,53.744-11.074
		c1.887,2.17,3.665,4.049,5.547,6.076c0.916,0.988,2.08,1.891,3.163,2.711c2.934,2.225,6.115,2.826,9.572,2.814
		C185.067,292.534,159.803,298.524,134.906,298.813z M182.104,285.045c0.128-0.168,0.236-0.355,0.328-0.547
		c0.159-0.342,0.251-0.744,0.274-1.195c0.024-0.463-0.042-0.93-0.201-1.406c-0.104-0.326-0.239-0.625-0.401-0.891V285.045z
		 M182.104,278.331L182.104,278.331c0.091-0.01,0.178,0,0.26,0.016c0.11,0.029,0.211,0.09,0.291,0.191
		c0.044,0.063,0.131,0.246,0.251,0.547l1.788,4.393c0.142,0.334,0.202,0.553,0.201,0.646c0,0.129-0.032,0.23-0.107,0.311
		c-0.083,0.117-0.231,0.217-0.426,0.295l-0.222,0.09l0.073,0.186l5.825-2.34l-0.564-2.238l-0.184,0.072
		c0.079,0.66-0.016,1.213-0.28,1.645c-0.259,0.443-0.705,0.789-1.332,1.045l-0.403,0.154c-0.197,0.082-0.346,0.109-0.448,0.088
		c-0.109-0.018-0.193-0.059-0.26-0.127c-0.065-0.07-0.176-0.281-0.322-0.658l-0.771-1.877c0.323-0.127,0.588-0.184,0.792-0.17
		c0.199,0.012,0.414,0.123,0.641,0.314c0.23,0.191,0.438,0.465,0.636,0.832l0.187-0.078l-1.425-3.49l-0.185,0.07
		c0.155,0.545,0.191,0.99,0.106,1.328c-0.083,0.338-0.341,0.596-0.766,0.771l-0.138,0.055l-1.102-2.723l0.692-0.273
		c0.508-0.203,0.872-0.316,1.082-0.334c0.355-0.027,0.667,0.025,0.926,0.168c0.257,0.141,0.534,0.434,0.824,0.881l0.193-0.078
		l-0.806-1.979l-5.028,2.012V278.331z M182.104,278.075l-0.614,0.246l0.079,0.186l0.22-0.09c0.107-0.047,0.216-0.074,0.315-0.086
		V278.075z M182.104,281.006c-0.191-0.316-0.424-0.592-0.692-0.838c-0.493-0.447-1.099-0.713-1.802-0.785
		c-0.162-0.016-0.337-0.018-0.521-0.016v0.826c0.166,0.09,0.324,0.209,0.48,0.361c0.448,0.434,0.821,1.088,1.106,1.969
		c0.361,1.092,0.423,1.963,0.186,2.613c-0.177,0.479-0.542,0.811-1.114,0.988c-0.17,0.059-0.314,0.078-0.424,0.059
		c-0.073-0.018-0.135-0.053-0.184-0.107c-0.014-0.012-0.027-0.041-0.051-0.084v0.764l0.66-0.219c0.449-0.137,0.77-0.264,0.967-0.371
		c0.434-0.24,0.788-0.494,1.066-0.754c0.112-0.115,0.223-0.238,0.322-0.367V281.006z M179.089,279.368
		c-0.464,0.027-0.987,0.135-1.584,0.324l-2.179,0.707v0.391c0.078,0.031,0.133,0.07,0.172,0.119c0.069,0.074,0.16,0.293,0.274,0.635
		l1.477,4.502c0.116,0.359,0.171,0.576,0.163,0.656c-0.013,0.127-0.066,0.234-0.153,0.336c-0.086,0.096-0.233,0.176-0.436,0.242
		l-0.223,0.07l0.055,0.184l2.434-0.777v-0.764c-0.042-0.086-0.093-0.223-0.16-0.42l-1.756-5.35c0.568-0.182,0.989-0.264,1.273-0.236
		c0.218,0.027,0.435,0.092,0.643,0.207V279.368z M175.326,287.989l0.912-0.244l-0.049-0.186l-0.233,0.063
		c-0.196,0.049-0.359,0.055-0.496,0.02c-0.052-0.012-0.093-0.027-0.134-0.047V287.989z M175.326,280.399l-0.915,0.291l0.063,0.186
		l0.227-0.072c0.194-0.061,0.362-0.08,0.497-0.055c0.046,0.012,0.09,0.023,0.129,0.041V280.399z M175.326,287.594L175.326,287.594
		c-0.065-0.035-0.118-0.074-0.166-0.121c-0.058-0.08-0.136-0.299-0.232-0.656l-1.24-4.572c-0.095-0.348-0.131-0.57-0.115-0.662
		c0.018-0.131,0.065-0.225,0.145-0.305c0.104-0.098,0.257-0.18,0.46-0.234l0.234-0.063l-0.053-0.191l-3.553,0.953v0.193l0.168-0.039
		c0.198-0.057,0.361-0.059,0.497-0.029c0.134,0.037,0.23,0.092,0.294,0.174c0.059,0.078,0.136,0.293,0.236,0.652l1.234,4.576
		c0.098,0.352,0.134,0.568,0.117,0.656c-0.014,0.131-0.061,0.232-0.14,0.305c-0.105,0.107-0.259,0.188-0.462,0.238l-0.235,0.061
		l0.054,0.191l2.757-0.732V287.594z M170.806,283.905l0.115-0.027l-0.115-0.504V283.905z M170.806,281.743l-0.11,0.023l0.045,0.191
		l0.065-0.021V281.743z M170.806,283.374L170.806,283.374l-0.357-1.51l-5.971,1.365l0.045,0.193l0.235-0.057
		c0.197-0.049,0.361-0.049,0.496-0.012c0.13,0.045,0.229,0.102,0.289,0.189c0.055,0.078,0.124,0.299,0.212,0.658l1.076,4.613
		c0.077,0.346,0.111,0.576,0.097,0.666c-0.026,0.125-0.076,0.227-0.155,0.293c-0.107,0.104-0.261,0.174-0.469,0.227l-0.236,0.051
		l0.045,0.195l3.705-0.842l-0.051-0.203l-0.231,0.064c-0.201,0.041-0.368,0.041-0.497,0s-0.229-0.105-0.289-0.188
		c-0.063-0.074-0.134-0.295-0.219-0.652l-0.498-2.145l0.208-0.049c0.369-0.088,0.728-0.057,1.073,0.09
		c0.341,0.143,0.627,0.543,0.842,1.193l0.187-0.043l-0.822-3.521l-0.186,0.037c0.049,0.385,0.03,0.713-0.057,0.959
		c-0.085,0.254-0.217,0.449-0.396,0.586c-0.175,0.139-0.418,0.246-0.737,0.316l-0.201,0.045l-0.673-2.877l0.66-0.152
		c0.568-0.135,0.957-0.195,1.18-0.184c0.398,0,0.726,0.092,0.984,0.273c0.25,0.188,0.455,0.502,0.614,0.969l0.098-0.02V283.374z
		 M155.208,291.063l0.041-1.139h-0.041V291.063z M155.209,285.122L155.209,285.122l0.269,1.664l0.2-0.029
		c-0.004-0.535,0.121-0.967,0.39-1.303c0.182-0.24,0.521-0.391,1.005-0.469l0.518-0.086l0.88,5.492
		c0.057,0.352,0.071,0.58,0.048,0.668c-0.04,0.127-0.1,0.227-0.178,0.285c-0.116,0.096-0.284,0.158-0.492,0.189l-0.237,0.035
		l0.034,0.199l3.758-0.588l-0.028-0.201l-0.241,0.039c-0.201,0.033-0.37,0.027-0.498-0.023c-0.129-0.049-0.223-0.115-0.278-0.197
		c-0.054-0.094-0.11-0.313-0.168-0.678l-0.879-5.486l0.536-0.086c0.333-0.053,0.576-0.055,0.721-0.014
		c0.257,0.078,0.472,0.203,0.639,0.375c0.171,0.174,0.346,0.473,0.53,0.895l0.19-0.023l-0.31-1.928l-6.407,1.004V285.122z
		 M155.209,284.856l-0.038,0.004l0.038,0.262V284.856z M155.208,289.924L155.208,289.924l-0.152,0.014
		c-0.113,0.66-0.354,1.162-0.734,1.51c-0.372,0.355-0.896,0.563-1.565,0.637l-0.436,0.047c-0.206,0.018-0.364,0.01-0.455-0.039
		c-0.096-0.041-0.171-0.111-0.21-0.199c-0.049-0.086-0.088-0.328-0.132-0.715l-0.212-2.02c0.344-0.035,0.61-0.018,0.803,0.047
		c0.192,0.076,0.364,0.234,0.532,0.482c0.162,0.248,0.29,0.57,0.377,0.975l0.202-0.021l-0.397-3.748l-0.203,0.021
		c0,0.561-0.088,0.996-0.263,1.307c-0.177,0.303-0.493,0.479-0.95,0.525l-0.146,0.016l-0.307-2.914l0.743-0.074
		c0.552-0.063,0.931-0.066,1.129-0.025c0.356,0.066,0.64,0.211,0.85,0.416c0.213,0.203,0.394,0.563,0.551,1.068l0.199-0.023
		l-0.223-2.115l-6.05,0.629l0.019,0.193l0.241-0.023c0.235-0.021,0.422,0.002,0.572,0.09c0.1,0.059,0.181,0.143,0.225,0.264
		c0.027,0.074,0.056,0.273,0.092,0.6l0.498,4.703c0.037,0.365,0.042,0.586,0.011,0.674c-0.037,0.129-0.097,0.217-0.186,0.277
		c-0.121,0.088-0.283,0.141-0.497,0.16l-0.239,0.025l0.022,0.197l6.251-0.65l0.04-1.17V289.924z M141.179,291.452l1.301-0.074
		l0.433,0.875c0.11,0.236,0.174,0.361,0.182,0.396c0.021,0.066,0.039,0.131,0.044,0.188c0.006,0.109-0.034,0.195-0.104,0.256
		c-0.113,0.082-0.31,0.131-0.588,0.15l-0.147,0.006l0.012,0.193l3.511-0.182l-0.011-0.195c-0.225-0.01-0.396-0.063-0.523-0.164
		c-0.17-0.141-0.395-0.475-0.672-1.027l-2.929-5.756l-0.104,0.002l-0.404,1.039v1.65l1.095,2.189l-1.095,0.059V291.452z
		 M141.179,287.159l-1.893,4.838c-0.212,0.561-0.401,0.932-0.562,1.113c-0.156,0.184-0.366,0.301-0.624,0.357l0.01,0.197
		l2.411-0.129l-0.008-0.195c-0.375-0.008-0.617-0.039-0.716-0.092c-0.168-0.088-0.26-0.232-0.271-0.422
		c-0.004-0.166,0.031-0.355,0.121-0.596l0.267-0.711l1.265-0.068v-0.395l-1.101,0.059l0.983-2.539l0.117,0.232V287.159z
		 M111.986,292.014l5.747,0.809l0.64-2.223l-0.195-0.027c-0.268,0.604-0.622,1.033-1.067,1.287c-0.458,0.25-1.014,0.33-1.687,0.234
		l-0.43-0.063c-0.205-0.027-0.355-0.072-0.434-0.143c-0.086-0.064-0.139-0.15-0.159-0.244c-0.018-0.096-0.003-0.334,0.052-0.725
		l0.287-2.012c0.338,0.047,0.599,0.137,0.767,0.248c0.167,0.115,0.302,0.309,0.399,0.586c0.101,0.281,0.143,0.631,0.129,1.035
		l0.196,0.033l0.53-3.734l-0.199-0.023c-0.139,0.537-0.326,0.943-0.572,1.193c-0.246,0.262-0.595,0.355-1.051,0.295l-0.146-0.023
		l0.414-2.906l0.743,0.107c0.544,0.076,0.91,0.156,1.101,0.252c0.324,0.146,0.564,0.346,0.716,0.602
		c0.157,0.252,0.251,0.643,0.278,1.172l0.197,0.023l0.304-2.107l-6.025-0.838l-0.028,0.197l0.241,0.031
		c0.233,0.031,0.408,0.104,0.531,0.229c0.084,0.074,0.138,0.18,0.153,0.303c0.01,0.082-0.01,0.275-0.057,0.602l-0.668,4.693
		c-0.049,0.352-0.1,0.574-0.149,0.646c-0.068,0.117-0.149,0.188-0.253,0.229c-0.086,0.033-0.188,0.051-0.305,0.055V292.014z
		 M111.987,284.868L111.987,284.868c0.06,0,0.126,0.008,0.196,0.023l0.24,0.049l0.035-0.193l-0.472-0.094V284.868z M121.861,286.069
		l-2.568-0.217l-0.019,0.193c0.222,0.023,0.388,0.072,0.5,0.145c0.11,0.076,0.235,0.207,0.373,0.414l0.136,0.203l-0.449,5.063
		c-0.031,0.379-0.137,0.639-0.305,0.789c-0.172,0.145-0.453,0.199-0.857,0.168l-0.012,0.199l2.564,0.219l0.018-0.191l-0.171-0.02
		c-0.243-0.02-0.457-0.107-0.632-0.273c-0.178-0.16-0.25-0.449-0.214-0.859l0.406-4.559l4.366,6.4l0.182,0.012l0.525-5.969
		c0.031-0.342,0.081-0.58,0.154-0.713c0.071-0.137,0.163-0.23,0.274-0.275c0.105-0.057,0.316-0.09,0.628-0.098l0.018-0.201
		l-2.392-0.203l-0.019,0.191c0.405,0.029,0.683,0.156,0.834,0.371c0.111,0.174,0.15,0.465,0.111,0.889l-0.275,3.084L121.861,286.069
		z M133.36,286.575h-6.529v1.951h0.196c0.088-0.535,0.285-0.949,0.592-1.23c0.223-0.205,0.58-0.305,1.073-0.305h0.521v5.547
		c0,0.367-0.021,0.59-0.061,0.674c-0.053,0.121-0.126,0.199-0.221,0.256c-0.128,0.072-0.296,0.105-0.507,0.105h-0.243v0.195
		l3.806,0.002v-0.197h-0.238c-0.211,0-0.37-0.033-0.494-0.104c-0.117-0.064-0.194-0.15-0.237-0.238
		c-0.037-0.084-0.062-0.322-0.062-0.691v-5.549h0.541c0.336,0,0.576,0.029,0.711,0.09c0.242,0.121,0.437,0.277,0.576,0.475
		c0.139,0.191,0.264,0.518,0.381,0.971h0.194V286.575z M137.771,293.508l-0.245,0.004c-0.201,0.004-0.364-0.027-0.487-0.102
		c-0.12-0.063-0.199-0.139-0.243-0.234c-0.043-0.09-0.066-0.318-0.074-0.689l-0.079-4.732c-0.007-0.361,0.01-0.58,0.048-0.674
		c0.046-0.117,0.115-0.201,0.213-0.254c0.124-0.078,0.293-0.119,0.503-0.119l0.243-0.008v-0.197l-3.804,0.066l0.004,0.201h0.242
		c0.203-0.01,0.367,0.02,0.486,0.09c0.121,0.066,0.2,0.145,0.244,0.236c0.039,0.09,0.063,0.322,0.071,0.689l0.082,4.736
		c0.008,0.357-0.011,0.586-0.047,0.67c-0.048,0.117-0.122,0.211-0.207,0.256c-0.132,0.074-0.3,0.119-0.51,0.125h-0.245l0.009,0.197
		l3.799-0.066L137.771,293.508z M111.987,284.653l-3.256-0.627l-0.038,0.193l0.238,0.043c0.197,0.041,0.352,0.105,0.451,0.199
		c0.108,0.088,0.17,0.184,0.188,0.275c0.023,0.1,0,0.336-0.068,0.686l-0.916,4.654c-0.068,0.359-0.133,0.57-0.189,0.646
		c-0.072,0.111-0.156,0.182-0.257,0.211c-0.088,0.031-0.188,0.037-0.306,0.037v0.219l3.242,0.625l0.037-0.197l-0.24-0.045
		c-0.199-0.037-0.351-0.104-0.455-0.193c-0.105-0.086-0.168-0.18-0.188-0.287c-0.022-0.086,0-0.324,0.074-0.682l0.909-4.65
		c0.068-0.352,0.135-0.566,0.188-0.646c0.076-0.109,0.164-0.174,0.263-0.211c0.095-0.031,0.203-0.039,0.323-0.035V284.653z
		 M111.986,291.807L111.986,291.807c-0.066,0-0.136-0.004-0.21-0.016l-0.247-0.029l-0.023,0.191l0.48,0.061V291.807z
		 M107.834,285.77L107.834,285.77l0.499-1.955l-0.204-0.051c-0.072,0.168-0.155,0.279-0.258,0.346l-0.037,0.021V285.77z
		 M84.846,276.583v0.725c0.025-0.039,0.051-0.064,0.068-0.09c0.098-0.092,0.197-0.141,0.301-0.156
		c0.149-0.018,0.316,0.016,0.512,0.092l0.227,0.09l0.074-0.184L84.846,276.583z M107.834,284.131
		c-0.09,0.041-0.185,0.047-0.279,0.033c-0.088-0.027-0.277-0.139-0.568-0.344c-0.491-0.344-0.99-0.58-1.488-0.707
		c-0.672-0.168-1.35-0.16-2.031,0.025c-0.679,0.184-1.269,0.529-1.772,1.037c-0.505,0.514-0.842,1.102-1.008,1.77
		c-0.161,0.623-0.153,1.268,0.024,1.902s0.521,1.18,1.031,1.625s1.139,0.752,1.891,0.938c0.57,0.146,1.097,0.176,1.572,0.104
		c0.477-0.082,0.959-0.273,1.455-0.588l0.154-0.6c-0.527,0.367-1.004,0.6-1.418,0.703c-0.416,0.1-0.847,0.094-1.292-0.016
		c-0.54-0.133-0.945-0.379-1.22-0.721c-0.275-0.348-0.426-0.793-0.459-1.344c-0.029-0.563,0.033-1.152,0.188-1.771
		c0.163-0.631,0.419-1.184,0.766-1.652c0.277-0.361,0.626-0.623,1.059-0.783c0.43-0.16,0.859-0.184,1.303-0.074
		c0.525,0.129,0.957,0.412,1.288,0.855c0.333,0.434,0.496,0.988,0.488,1.658l0.202,0.053l0.115-0.465V284.131z M107.834,290.971
		c-0.064-0.004-0.142-0.012-0.215-0.027l-0.24-0.039l-0.032,0.188l0.487,0.098V290.971z M84.846,284.352L84.846,284.352l1.244,0.447
		l0.063-0.188l-0.158-0.057c-0.232-0.08-0.41-0.223-0.539-0.43c-0.133-0.195-0.125-0.494,0.021-0.885l1.578-4.299l2.547,7.301
		l0.172,0.057l2.07-5.629c0.115-0.32,0.23-0.539,0.33-0.646c0.105-0.111,0.216-0.178,0.34-0.205c0.119-0.02,0.329,0,0.631,0.074
		l0.07-0.186l-2.258-0.816l-0.068,0.186c0.382,0.131,0.617,0.32,0.713,0.57c0.061,0.189,0.018,0.484-0.129,0.887L90.4,283.44
		l-1.825-5.41l-2.423-0.869l-0.069,0.188c0.206,0.076,0.353,0.168,0.448,0.26c0.086,0.1,0.171,0.266,0.25,0.498l0.078,0.236
		l-1.756,4.77c-0.072,0.209-0.16,0.365-0.258,0.486V284.352z M100.539,281.795L100.539,281.795l-0.154-0.043
		c-0.104,0.189-0.19,0.309-0.257,0.348c-0.069,0.043-0.146,0.045-0.237,0.02c-0.09-0.025-0.236-0.129-0.439-0.305
		c-0.195-0.178-0.371-0.307-0.52-0.398c-0.197-0.115-0.411-0.199-0.637-0.266c-0.627-0.178-1.194-0.129-1.714,0.145
		c-0.519,0.268-0.864,0.686-1.022,1.232c-0.095,0.324-0.102,0.648-0.03,0.955c0.067,0.305,0.21,0.611,0.427,0.91
		c0.215,0.297,0.596,0.693,1.143,1.184c0.391,0.346,0.652,0.619,0.792,0.805c0.138,0.186,0.228,0.377,0.271,0.549
		c0.041,0.178,0.041,0.354-0.004,0.514c-0.078,0.271-0.264,0.486-0.555,0.629c-0.285,0.143-0.621,0.156-1.01,0.049
		c-0.494-0.143-0.904-0.463-1.225-0.98c-0.318-0.502-0.445-1.145-0.385-1.926l-0.189-0.053l-0.756,2.613l0.188,0.053
		c0.102-0.121,0.211-0.205,0.332-0.244c0.12-0.035,0.223-0.047,0.314-0.018c0.105,0.033,0.227,0.098,0.376,0.215
		c0.263,0.205,0.481,0.357,0.663,0.459c0.187,0.098,0.387,0.184,0.605,0.244c0.702,0.199,1.342,0.158,1.916-0.133
		c0.574-0.285,0.947-0.721,1.113-1.299c0.133-0.455,0.109-0.898-0.07-1.334c-0.183-0.438-0.625-0.961-1.328-1.594
		c-0.497-0.459-0.816-0.76-0.943-0.92c-0.174-0.217-0.289-0.418-0.346-0.605c-0.031-0.145-0.031-0.285,0.017-0.441
		c0.066-0.246,0.23-0.426,0.494-0.559c0.253-0.125,0.556-0.137,0.908-0.037c0.45,0.127,0.823,0.422,1.11,0.887
		c0.289,0.465,0.4,0.998,0.329,1.605l0.212,0.063L100.539,281.795z M83.379,283.549l-0.225-0.09c-0.188-0.07-0.324-0.166-0.41-0.279
		c-0.086-0.107-0.129-0.213-0.133-0.309c-0.005-0.104,0.066-0.32,0.203-0.664l1.796-4.393c0.095-0.234,0.18-0.402,0.235-0.508
		v-0.725l-2.339-0.939l-0.077,0.189l0.225,0.086c0.186,0.074,0.324,0.166,0.41,0.275s0.129,0.215,0.129,0.311
		c0,0.1-0.065,0.322-0.202,0.666l-1.798,4.391c-0.137,0.332-0.238,0.537-0.305,0.596c-0.092,0.092-0.19,0.141-0.295,0.158
		c-0.15,0.021-0.32-0.002-0.514-0.084l-0.228-0.09l-0.071,0.18l3.52,1.41L83.379,283.549z M84.846,283.598L84.846,283.598
		c-0.074,0.088-0.156,0.152-0.24,0.197c-0.203,0.1-0.494,0.076-0.873-0.053l-0.069,0.182l1.183,0.428V283.598z M248.942,206.206
		c-1.813-7.105-7.912-12.506-15.319-13.127c-0.3,0.299-0.539,0.811-0.814,1.313c7.456,0.277,13.777,5.75,15.122,13.018
		C248.386,206.971,248.82,206.573,248.942,206.206z M228.132,193.5c-7.128,1.74-12.274,7.871-13.061,15.055
		c0.15,0.352,0.656,0.738,1.176,1.18c0.211-7.447,5.676-13.742,13.043-15.09C228.876,194.174,228.5,193.698,228.132,193.5z
		 M255.06,193.784c0.695-0.828,1.41-2.141,1.19-3.49c-0.272-1.66-7.244-7.311-9.915-7.516c-1.175-0.09-2.311,0.941-3.019,1.826
		c2.714,1.143,5.256,2.713,7.536,4.678C252.433,190.635,253.837,192.149,255.06,193.784z M254.182,182.381
		c-1.395-1-3.295-0.422-4.237,0.889c1.655,1.004,3.231,2.209,4.663,3.502C255.533,185.377,255.681,183.459,254.182,182.381z
		 M259.621,231.872c-0.105-0.754-0.57-1.438-1.079-1.889c-0.617,0.867-1.288,1.66-1.802,2.242c-0.441,0.5-1.191,1.316-2.044,2.119
		c0.668,0.473,1.615,0.887,2.47,0.764C258.86,234.875,259.859,233.559,259.621,231.872z M229.782,227.387
		c0.355-0.279,0.753-0.533,1.179-0.766l0.012,0.18c-0.206,0.197-0.421,0.42-0.648,0.666
		C230.143,227.446,229.962,227.42,229.782,227.387z M234.528,224.36c-1.067-1.328-2.701-2.316-4.519-2.4
		c-1.505,0.846-3.114,1.758-4.615,2.602c1.042,0.814,2.003,1.482,3.339,1.85C229.449,226.61,233.28,224.641,234.528,224.36z
		 M232.242,232.284c0.948-0.502,1.991-0.768,2.944-1.273c-0.081-1.643-0.22-3.701-0.293-5.34c-0.998,0.336-1.887,0.662-2.881,1.127
		C232.159,228.551,232.163,230.536,232.242,232.284z M232.48,239.042l2.984-1.504l-0.23-4.99l-2.891,1.223L232.48,239.042z
		 M232.58,240.575l0.325,5.293l2.697-1.596l-0.206-5.061L232.58,240.575z M232.952,250.719c0.874-0.438,1.909-0.5,2.832-0.178
		l-0.129-4.994l-2.747,1.791C232.901,247.94,232.943,249.688,232.952,250.719z M232.632,256.866
		c-1.567,0.377-3.048,1.189-4.229,2.459c2.97-0.705,9.999-0.859,12.711,0.221c-1.189-1.422-2.807-2.285-4.544-2.666
		C235.476,257.635,233.824,257.622,232.632,256.866z M231.984,253.911c0,1.414,1.161,2.57,2.595,2.57
		c1.427,0,2.593-1.156,2.593-2.57c0-1.412-1.166-2.568-2.593-2.568C233.146,251.342,231.984,252.499,231.984,253.911z
		 M227.956,263.467c-0.408,2.926-0.949,6.283-1.338,9.236c0.486,0.188,0.978,0.209,1.429,0.016c0.073-0.037,0.573-6.775,0.715-9.248
		C228.837,262.215,228.122,262.272,227.956,263.467z M230.019,263.438c-0.284,3.061-0.681,6.531-1.025,9.492
		c0.494,0.184,0.977,0.203,1.437,0.018c0.072-0.031,0.307-7.074,0.396-9.508C230.878,262.18,230.131,262.235,230.019,263.438z
		 M232.155,263.397c-0.166,2.926-0.58,6.738-0.745,9.691c0.49,0.184,0.978,0.205,1.429,0.01c0.072-0.031,0.153-7.266,0.124-9.697
		C232.947,262.139,232.224,262.194,232.155,263.397z M234.43,263.397c-0.095,2.959-0.369,6.75-0.463,9.707
		c0.491,0.186,0.977,0.207,1.43,0.01c0.073-0.025-0.133-7.281-0.159-9.713C235.225,262.139,234.462,262.194,234.43,263.397z
		 M236.528,263.313c-0.092,2.922-0.035,6.711-0.132,9.672c0.485,0.186,0.978,0.205,1.432,0.01c0.074-0.025-0.425-7.281-0.494-9.715
		C237.302,262.024,236.566,262.112,236.528,263.313z M238.633,263.282c-0.024,2.918,0.276,6.607,0.18,9.566
		c0.492,0.182,0.979,0.113,1.431-0.074c0.072-0.033-0.703-7.043-0.805-9.492C239.385,262.026,238.637,262.075,238.633,263.282z
		 M241.502,263.235c-0.096-1.254-0.873-1.186-0.813,0.021c0.143,2.928,0.316,6.451,0.405,9.418c0.494,0.174,0.983,0.039,1.438-0.166
		C242.595,272.471,241.681,265.807,241.502,263.235z M227.69,261.612c5.133-0.482,8.421-0.623,14.137,0.102
		C235.744,258.583,233.565,258.682,227.69,261.612z M202.983,222.733l0.457,1.449l0.718,2.525l-2.463-0.975
		c0.075-0.439,0.125-0.883,0.125-1.342v-0.922c0-0.43-0.043-0.85-0.11-1.264L202.983,222.733z M201.563,197.952l-0.003,23.281
		l1.076,0.398l-0.005-0.014l1.271,0.436l1.991,0.746c-1.505-3.18-2.42-6.641-2.673-10.227c-0.215-3.074,0.066-6.119,0.809-9.035
		c-1.911-1.371-3.053-2.811-1.98-5.207C201.86,198.19,201.706,198.073,201.563,197.952z M201.564,179.45l-0.002,16.535
		c0.658,0.523,1.649,1.309,1.889,1.486c1.323-2.566,3.132-5.625,5.093-7.984l2.048-2.262c0.025-0.025,0.051-0.057,0.075-0.082
		c0,0-0.002,0-0.002-0.004l0.17-0.135l-2.813-2.242L201.564,179.45z M207.438,235.329c0.129-0.545,0.34-1.086,0.609-1.576
		c-0.2-0.219-0.384-0.438-0.549-0.658C207.474,233.829,207.455,234.575,207.438,235.329z M217.905,239.969
		c-0.764-0.041-1.563-0.262-2.403-0.66c-0.712,0.768-1.671,1.336-2.602,1.535c-2.579,0.533-4.912-0.924-5.506-3.451
		c-0.081,4.463-0.102,9.076-0.187,13.104C211.457,247.53,214.733,243.997,217.905,239.969z M210.107,235.055
		c-0.174,0.506-0.257,1.051-0.149,1.551c0.352,1.658,1.753,2.549,3.437,2.201c0.675-0.141,1.606-0.877,2.096-1.412
		C213.524,236.975,211.647,236.252,210.107,235.055z M207.404,224.305c-0.476,0.998-0.797,2.086-0.944,3.223l-0.757-0.283
		l-1.194-4.025L207.404,224.305z M214.597,218.899c-1.929,0.293-3.716,1.164-5.134,2.527c-0.536,0.52-1.011,1.1-1.416,1.729
		c-1.712-3.223-2.793-6.844-3.062-10.709l-0.014-0.27v-3.254c0.813-13.365,11.526-24.381,25.372-25.332
		c0.636-0.041,1.269-0.063,1.895-0.066c14.231-0.014,26.247,10.91,27.245,25.188l0.017,0.262v3.299
		c-0.782,12.584-10.354,23.078-23.039,25.029c-0.081-2.844-0.172-5.688-0.285-8.541c0.082,0.014,0.166,0.014,0.241-0.004
		c7.594-1.762,13.265-8.275,14.082-16.123c0.116-1.08-2.664-2.619-2.735-3.246c-0.068-0.537,2.54-2.283,2.273-3.342
		c-1.938-7.793-8.655-13.533-16.604-14.084c-0.385-0.02-0.806,0.582-1.195,1.236c-0.445,0.736-0.849,1.539-1.107,1.551
		c-0.55,0.045-2.146-2.563-3.079-2.348c-7.598,1.76-13.268,8.271-14.087,16.119c-0.075,0.738,1.078,1.598,1.851,2.295l-0.436,0.762
		c-0.433,0.756-1.2,1.568-1.642,2.451c-0.119,0.443-0.227,0.883-0.324,1.324c0.009,0.166,0.019,0.328,0.063,0.498
		C213.767,216.901,214.143,217.92,214.597,218.899z M217.634,218.917c-0.269-0.043-0.539-0.074-0.808-0.094
		c-0.261-0.023-0.524-0.031-0.783-0.031c-0.091,0-0.184,0-0.277,0.004c-0.499-1.027-0.91-2.105-1.221-3.232
		c-0.271-0.992,1.294-2.563,1.793-3.449C216.187,214.528,216.729,216.836,217.634,218.917z M224.901,223.672
		c-1.126-2.033-3.107-3.486-5.277-4.254c-1.177-2.186-1.838-4.586-1.757-6.898c0.198-0.455,0.207-0.932,0.069-1.406
		c0.466-7.41,4.257-13.707,12.246-14.84c0.674,0.344,1.466,0.301,2.081-0.141c0.347,0,0.684,0.012,1.02,0.035
		c6.301,0.473,11.588,5.082,12.841,11.234c0.146,0.73,0.123,1.258,0.027,1.996c-0.061,0.484-0.079,0.943,0.176,1.23
		c0.642,0.73,1.536,1.268,2.222,1.982c0.148,0.15,0.158,0.166,0.129,0.377c-0.903,6.619-5.667,12.248-12.245,13.963l-0.345-0.25
		l-0.038-0.848l-0.063-1.309l0.019-0.01l-0.877-1.086c-1.28-1.596-3.021-2.4-5.076-2.494l-0.291-0.012l-0.256,0.139
		c-1.505,0.846-3.01,1.695-4.51,2.535L224.901,223.672z M225.813,236.877l0.004-0.148c0.067-2.924,0.129-5.945,0.072-8.664
		c1.516,0.574,3.12,0.953,4.788,1.102c0.146,0.014,0.293-0.041,0.444-0.141c0.174,2.777,0.304,5.656,0.406,8.598
		C229.568,237.573,227.657,237.319,225.813,236.877z M56.518,186.196c3.87,3.176,8.033,9.16,9.845,13.676
		c0.207,0.51-0.861,1.473-1.847,2.174c-1.163-3.662-3.078-7.086-5.688-10.049c-1.632-1.861-3.474-3.475-5.487-4.83
		C54.507,186.475,56.035,185.801,56.518,186.196z M51.8,226.825c-1.883,2.867-4.271,2.516-6.771,0.818
		c0.19-7.154,10.086-10.127,14.563-5.068c2.213,2.518,2.897,6.42,0.257,9.875c-1.744,2.281-5.095,3.504-8.106,3.658L51.8,226.825z
		 M44.954,229.479c0.103,3.701,0.106,8.203,0.25,11.523c1.295,2.314,2.847,2.586,4.621,2.404c0.136-4.434,0.211-8.896,0.324-13.219
		C48.364,230.799,46.536,230.354,44.954,229.479z M20.648,206.168c1.814-7.105,7.912-12.506,15.32-13.127
		c0.299,0.299,0.54,0.811,0.814,1.311c-7.458,0.279-13.777,5.754-15.123,13.02C21.207,206.934,20.772,206.534,20.648,206.168z
		 M41.46,193.461c7.13,1.74,12.275,7.873,13.061,15.057c-0.15,0.352-0.656,0.738-1.176,1.182
		c-0.211-7.449-5.675-13.746-13.044-15.092C40.716,194.137,41.091,193.661,41.46,193.461z M14.533,193.747
		c-0.694-0.828-1.411-2.143-1.191-3.49c0.273-1.66,7.244-7.311,9.914-7.516c1.177-0.09,2.313,0.939,3.02,1.826
		c-2.713,1.141-5.255,2.711-7.537,4.678C17.16,190.598,15.756,192.11,14.533,193.747z M15.41,182.344
		c1.396-1,3.295-0.422,4.238,0.889c-1.656,1.004-3.231,2.209-4.664,3.502C14.06,185.338,13.91,183.42,15.41,182.344z M9.972,231.834
		c0.104-0.754,0.57-1.436,1.079-1.889c0.617,0.867,1.287,1.66,1.8,2.242c0.442,0.5,1.192,1.316,2.045,2.119
		c-0.669,0.473-1.614,0.887-2.47,0.764C10.732,234.838,9.731,233.522,9.972,231.834z M39.81,227.35
		c-0.355-0.279-0.753-0.533-1.179-0.768l-0.012,0.182c0.205,0.197,0.421,0.42,0.649,0.666
		C39.449,227.407,39.63,227.381,39.81,227.35z M35.064,224.323c1.066-1.328,2.699-2.316,4.518-2.402
		c1.506,0.848,3.114,1.76,4.616,2.604c-1.044,0.814-2.002,1.482-3.338,1.85C40.144,226.573,36.311,224.604,35.064,224.323z
		 M37.351,232.247c-0.948-0.502-1.992-0.768-2.944-1.271c0.08-1.645,0.219-3.703,0.293-5.344c0.998,0.336,1.887,0.664,2.879,1.129
		C37.432,228.512,37.428,230.497,37.351,232.247z M37.111,239.002l-2.984-1.502l0.23-4.99l2.891,1.223L37.111,239.002z
		 M37.012,240.538l-0.323,5.293l-2.699-1.596l0.205-5.061L37.012,240.538z M36.64,250.68c-0.873-0.436-1.909-0.498-2.833-0.176
		l0.13-4.996l2.746,1.793C36.69,247.903,36.648,249.651,36.64,250.68z M36.96,256.829c1.567,0.375,3.048,1.191,4.229,2.459
		c-2.971-0.705-9.998-0.859-12.71,0.223c1.188-1.424,2.806-2.287,4.543-2.668C34.117,257.598,35.769,257.583,36.96,256.829z
		 M37.607,253.874c0,1.414-1.16,2.57-2.595,2.57c-1.427,0-2.592-1.156-2.592-2.57s1.165-2.566,2.592-2.568
		C36.447,251.305,37.607,252.459,37.607,253.874z M41.637,263.43c0.408,2.926,0.948,6.281,1.337,9.234
		c-0.486,0.189-0.976,0.211-1.427,0.018c-0.075-0.035-0.574-6.775-0.716-9.248C40.756,262.176,41.47,262.233,41.637,263.43z
		 M39.574,263.401c0.283,3.061,0.68,6.529,1.023,9.492c-0.492,0.184-0.977,0.205-1.436,0.016c-0.072-0.031-0.307-7.074-0.396-9.508
		C38.715,262.141,39.461,262.2,39.574,263.401z M37.437,263.36c0.165,2.928,0.58,6.736,0.745,9.691
		c-0.491,0.184-0.977,0.205-1.43,0.01c-0.071-0.031-0.152-7.266-0.123-9.699C36.646,262.102,37.369,262.155,37.437,263.36z
		 M35.162,263.36c0.096,2.959,0.369,6.748,0.464,9.707c-0.491,0.186-0.979,0.209-1.432,0.01c-0.073-0.025,0.134-7.281,0.16-9.715
		C34.367,262.102,35.129,262.155,35.162,263.36z M33.064,263.274c0.091,2.922,0.034,6.713,0.131,9.674
		c-0.486,0.186-0.979,0.207-1.431,0.01c-0.076-0.025,0.424-7.281,0.493-9.713C32.288,261.989,33.024,262.075,33.064,263.274z
		 M30.96,263.245c0.024,2.918-0.277,6.607-0.181,9.566c-0.492,0.182-0.979,0.115-1.432-0.076c-0.071-0.031,0.706-7.043,0.807-9.49
		C30.207,261.989,30.956,262.038,30.96,263.245z M28.09,263.198c0.097-1.254,0.873-1.184,0.813,0.021
		c-0.142,2.926-0.316,6.453-0.406,9.418c-0.494,0.174-0.982,0.037-1.437-0.166C26.996,272.434,27.91,265.77,28.09,263.198z
		 M41.901,261.575c-5.134-0.482-8.421-0.625-14.137,0.1C33.849,258.545,36.027,258.647,41.901,261.575z M62.154,235.292
		c-0.129-0.545-0.339-1.086-0.61-1.578c0.2-0.215,0.385-0.436,0.55-0.656C62.116,233.792,62.137,234.538,62.154,235.292z
		 M51.916,239.913c0.693-0.068,1.417-0.283,2.173-0.641c0.713,0.768,1.673,1.336,2.603,1.535c2.58,0.531,4.911-0.926,5.505-3.451
		c0.08,4.408,0.102,8.963,0.185,12.955c-4.138-2.936-7.359-6.416-10.465-10.375V239.913z M59.537,235.178
		c0.139,0.459,0.193,0.941,0.097,1.389c-0.352,1.66-1.753,2.551-3.435,2.201c-0.653-0.135-1.547-0.826-2.046-1.355
		C56.109,237.016,57.983,236.327,59.537,235.178z M63.361,227.403l0.527-0.197l1.194-4.023l-2.697,1.012
		C62.872,225.186,63.203,226.27,63.361,227.403z M61.647,222.922c1.652-3.174,2.694-6.725,2.961-10.516l0.012-0.268v-3.254
		c-0.811-13.365-11.526-24.381-25.371-25.332c-0.636-0.043-1.27-0.063-1.895-0.066c-14.233-0.014-26.249,10.91-27.245,25.188
		l-0.017,0.262v3.297c0.779,12.586,10.353,23.082,23.037,25.031c0.082-2.844,0.173-5.689,0.287-8.541
		c-0.085,0.014-0.166,0.012-0.243-0.004c-7.594-1.762-13.264-8.275-14.082-16.125c-0.114-1.078,2.666-2.617,2.736-3.244
		c0.069-0.539-2.539-2.283-2.273-3.342c1.938-7.791,8.655-13.535,16.604-14.084c0.385-0.02,0.805,0.582,1.196,1.236
		c0.444,0.734,0.849,1.539,1.106,1.551c0.549,0.045,2.146-2.564,3.079-2.35c7.599,1.76,13.266,8.271,14.087,16.121
		c0.075,0.738-1.079,1.596-1.851,2.295l0.437,0.762c0.431,0.756,1.199,1.566,1.64,2.451c0.12,0.443,0.228,0.883,0.325,1.324
		c-0.009,0.166-0.019,0.328-0.063,0.498c-0.288,1.043-0.66,2.057-1.109,3.029c2.02,0.256,3.894,1.146,5.366,2.564
		C60.847,221.868,61.274,222.375,61.647,222.922z M51.958,218.877c0.27-0.041,0.539-0.074,0.808-0.094
		c0.261-0.021,0.524-0.029,0.782-0.029c0.094,0,0.185,0,0.277,0.004c0.5-1.027,0.911-2.107,1.221-3.232
		c0.271-0.992-1.293-2.563-1.79-3.449C53.405,214.489,52.862,216.799,51.958,218.877z M44.691,223.635
		c1.125-2.033,3.106-3.484,5.277-4.254c1.176-2.186,1.837-4.588,1.755-6.898c-0.198-0.455-0.205-0.932-0.068-1.406
		c-0.466-7.412-4.256-13.707-12.245-14.84c-0.674,0.344-1.467,0.301-2.082-0.141c-0.346,0-0.683,0.012-1.021,0.035
		c-6.298,0.473-11.585,5.08-12.837,11.234c-0.148,0.73-0.126,1.258-0.028,1.996c0.061,0.482,0.079,0.943-0.175,1.23
		c-0.644,0.732-1.537,1.268-2.224,1.982c-0.147,0.15-0.158,0.166-0.129,0.377c0.904,6.619,5.668,12.248,12.244,13.963l0.347-0.25
		l0.039-0.848l0.061-1.311l-0.019-0.008l0.877-1.084c1.281-1.598,3.021-2.402,5.076-2.498l0.291-0.012l0.257,0.141
		c1.504,0.846,3.008,1.695,4.508,2.535L44.691,223.635z M43.779,236.838l-0.003-0.146c-0.068-2.926-0.131-5.947-0.072-8.664
		c-1.518,0.574-3.121,0.953-4.788,1.102c-0.146,0.012-0.294-0.039-0.444-0.139c-0.174,2.775-0.304,5.654-0.406,8.594
		C40.023,237.536,41.936,237.282,43.779,236.838z M67.499,273.702v0.02c-0.936-0.16-1.889-0.359-2.92-0.6
		c-1.012,2.164-2.722,3.66-4.052,5.379c3.146,0.086,5.304-0.098,6.972-0.525v0.076c2.797-0.662,4.219-1.979,6.427-3.809
		C71.476,274.243,69.54,274.065,67.499,273.702z M67.499,255.329v0.096c-5.988-2.908-11.473-6.979-15.885-12.492
		c-0.17,8.264-0.427,15.557,2.541,22.859c6.552,5.543,13.73,6.934,21.118,7.156l7.266-8.184c1.729-1.58,1.619-4.111-1.225-4.721
		C76.581,259.03,71.9,257.497,67.499,255.329z M67.491,222.331l-0.882,0.365l-0.458,1.449l-0.719,2.525l2.066-0.816v0.951
		l-1.81,0.668l-0.546,0.211l-0.006,0.023l-1.683,0.617c0.369,4.449,0.386,9.057,0.403,13.514c0.007,3.32,0.021,6.756,0.181,10.074
		l0.008,0.211l0.186,0.119c4.602,2.855,9.965,4.979,17.396,6.873c1.53,0.385,2.679,1.297,3.068,2.424
		c0.332,0.949,0.109,1.98-0.619,2.918c-0.689,0.881-1.383,1.744-2.121,2.627l-0.352,0.412l0.503,0.223
		c16.221,7.158,33.884,10.793,52.496,10.795h0.612c18.613,0.002,36.276-3.625,52.501-10.781l0.5-0.223l-0.353-0.414
		c-0.728-0.869-1.422-1.723-2.118-2.623c-0.728-0.938-0.951-1.973-0.617-2.922c0.391-1.125,1.537-2.037,3.065-2.422
		c7.437-1.891,12.799-4.012,17.4-6.865l0.182-0.121l0.013-0.211c0.159-3.318,0.17-6.75,0.186-10.066c0.013-4.43,0.03-9,0.395-13.418
		l-1.915-0.705l-0.006-0.02l-0.548-0.211l-2.354-0.873c-0.029,1.055-0.121,1.918-0.408,3.102
		c-1.312,5.395-4.014,10.381-8.048,14.289c-3.462,3.354-7.871,5.842-12.645,6.742c-1.175,0.219-2.001,0.25-3.175,0.25
		c-8.329-0.004-16.661-0.004-24.991-0.004c-1.134,0-2.155,0.004-3.259,0.285c-4.776,1.221-9.07,6.713-11.98,10.203l-1.192,1.828
		l-1.418-1.896c-3.469-4.631-10.36-10.506-16.614-10.506c-2.847,0-5.707-0.066-8.562-0.057c-5.779,0.012-11.542,0.246-17.334,0.08
		c-2.65-0.076-4.853-0.957-7.17-2.146c-7.951-4.107-14.04-11.145-16.375-19.738C67.715,226.629,67.538,224.583,67.491,222.331z
		 M67.477,201.639c-0.423,0.678-1.098,1.275-1.912,1.859c0.742,2.918,1.023,5.965,0.808,9.037
		c-0.253,3.586-1.168,7.047-2.672,10.227l1.989-0.746l1.271-0.436l-0.004,0.012l0.521-0.191c-0.005-0.551-0.004-1.115-0.004-1.705
		L67.477,201.639z M67.479,179.864l-5.909,4.861l-2.813,2.24l0.171,0.135c0,0.006-0.002,0.006-0.002,0.006
		c0.025,0.025,0.048,0.057,0.075,0.082l2.047,2.262c1.961,2.359,3.77,5.418,5.093,7.982c0.179-0.131,0.773-0.598,1.337-1.045
		L67.479,179.864z M192.823,102.822l8.751-0.011v2.399c1.237-1.521,2.065-3.159,2.307-4.893c1.479-10.609-1.296-22.578-1.869-34.353
		l-0.054-5.687c0.127-5.104,0.872-10.128,2.765-14.946c-2.839-3.314-8.913-7.247-11.653-1.547c-1.942,4.023-2.401,8.586-2.77,13.208
		c-0.063,0.862-0.091,1.747-0.099,2.65l-0.005,0.009l0.005,0.119c0.003,0.208-0.01,0.414-0.008,0.626c0.013,0,0.029,0,0.04,0.002
		l0.335,6.032C191.7,78.206,195.43,91.812,192.823,102.822z M190.28,102.825l1.67-0.002c1.764-7.11,0.77-15.298-0.25-22.244
		c-0.985-6.775-2.382-13.779-2.297-20.689c0.062-5.024,1.039-11.022,2.469-15.801c-1.896,3.78-2.908,8.495-3.259,12.847
		c-0.646,8.024,0.739,16.573,2.039,23.635C191.974,87.79,192.354,95.656,190.28,102.825z M162.266,102.857l19.674-0.021
		c2.725-2.078,5.635-4.3,8.514-6.497c0.302-3.406,0.247-6.894-0.001-9.89c-0.16-1.916-0.396-3.815-0.664-5.705
		C177.653,90.485,166.705,99.278,162.266,102.857z M12.045,223.202c1.051,2.049,2.363,3.984,3.919,5.748
		c1.799,2.047,3.86,3.805,6.12,5.236c-0.792,0.742-2.045,1.535-3.416,1.404c-1.688-0.15-7.863-6.65-8.26-9.271
		C10.236,225.165,11.205,223.967,12.045,223.202z M183.488,102.833l6.834-5.213c-0.212,1.809-0.53,3.573-0.983,5.206
		L183.488,102.833z M78.822,102.955l-1.675,0.002c-1.81-7.146-0.81-15.398,0.214-22.392c0.992-6.775,2.389-13.782,2.307-20.689
		c-0.059-5.026-1.035-11.024-2.463-15.804c1.893,3.781,2.904,8.496,3.25,12.85c0.648,8.023-0.74,16.572-2.037,23.634
		C77.081,87.823,76.705,95.746,78.822,102.955z M85.729,102.947l-5.969,0.007c-0.473-1.671-0.804-3.482-1.021-5.341
		C81.102,99.417,83.471,101.224,85.729,102.947z M106.885,102.923l-19.603,0.022c-2.771-2.114-5.738-4.379-8.673-6.621
		c-0.302-3.407-0.246-6.896,0.003-9.891c0.161-1.916,0.396-3.814,0.665-5.705C91.495,90.541,102.507,99.39,106.885,102.923z
		 M257.546,223.239c-1.049,2.049-2.361,3.984-3.917,5.746c-1.799,2.049-3.861,3.805-6.121,5.238
		c0.793,0.742,2.045,1.535,3.417,1.404c1.688-0.15,7.862-6.65,8.259-9.273C259.355,225.202,258.387,224.004,257.546,223.239z
		 M78.506,66.415l0.329-6.029c0.016-0.004,0.028-0.004,0.04-0.004c0.006-0.211-0.01-0.417-0.006-0.625l0.006-0.118l-0.006-0.008
		c-0.004-0.904-0.034-1.789-0.098-2.653c-0.366-4.621-0.823-9.186-2.766-13.209c-2.74-5.698-8.814-1.769-11.656,1.546
		c1.896,4.816,2.637,9.841,2.764,14.946l-0.057,5.687C66.482,77.722,63.703,89.69,65.18,100.3c0.241,1.734,1.069,3.374,2.309,4.896
		v-2.226l8.784-0.012C73.599,91.922,77.362,78.243,78.506,66.415z M151.801,102.87c-0.569-0.955-1.116-1.942-1.622-3.006
		c-0.21,0.059-0.412,0.115-0.59,0.163c-2.803,0.745-5.848,1.143-8.855,1.35c0.145,0.507,0.304,1.006,0.458,1.505L151.801,102.87z
		 M153.28,102.869c-0.596-1.104-1.158-2.257-1.67-3.464c-0.17,0.084-0.344,0.16-0.521,0.218c0.535,1.118,1.134,2.197,1.773,3.246
		H153.28z M140.288,102.883c-0.144-0.47-0.287-0.942-0.422-1.423c-0.304,0.017-0.606,0.031-0.907,0.045
		c0.144,0.466,0.293,0.927,0.442,1.38L140.288,102.883z M130.262,102.896c0.16-0.502,0.322-1.006,0.47-1.521
		c-3.011-0.207-6.055-0.606-8.853-1.353c-0.177-0.048-0.383-0.107-0.591-0.165c-0.516,1.081-1.07,2.085-1.649,3.05L130.262,102.896z
		 M132.065,102.894c0.152-0.459,0.303-0.92,0.445-1.391c-0.299-0.012-0.598-0.026-0.898-0.043c-0.134,0.483-0.277,0.96-0.422,1.435
		L132.065,102.894z M118.587,102.909c0.654-1.071,1.265-2.18,1.818-3.321c-0.179-0.058-0.361-0.121-0.546-0.188
		c-0.516,1.223-1.085,2.393-1.69,3.51H118.587z M119.022,99.068c-0.538,1.272-1.142,2.632-1.796,3.842l-8.852,0.011
		c-0.512-0.419-1.203-0.978-2.141-1.732c-2.073-1.667-5.029-4.046-8.578-6.899c-5.133-4.128-11.506-9.247-18.221-14.641
		c0.585-3.929,1.287-7.831,1.74-11.79c0.654-5.786,0.31-12.026-1.085-17.829c-0.829-3.448-2.062-6.828-4.03-9.826
		c-2.224-3.396-9.195-7.454-13.193-8.598c-1.997-0.372-4.096-0.359-6.148,0.035c-6.459,1.232-8.898,6.275-13.08,10.613
		c-0.132,0.131-1.313,0.968-1.47,1.833c-0.843,0.959-1.846,2.137-2.895,3.319L33.785,43c-0.05-0.04-0.103-0.073-0.157-0.103
		c-0.245-0.187-0.495-0.349-0.745-0.479c-0.137-0.071-0.287-0.108-0.439-0.108c-0.046,0-0.091,0.003-0.135,0.01
		c-0.267-0.548-1.357-1.575-2.409-1.575c-0.437,0-0.837,0.156-1.16,0.454c-0.577,0.528-1.098,1.02-1.581,1.489
		c-0.517-1.653-2.205-2.842-4.062-2.842c-1.029,0-1.969,0.386-2.645,1.086c-0.919,0.949-1.229,2.231-0.853,3.517
		c0.425,1.452,1.651,2.621,3.121,2.977c0.048,0.013,0.097,0.021,0.146,0.024c-0.346,0.44-0.708,0.913-1.099,1.434
		c-0.404,0.539-0.449,1.222-0.121,1.872c0.289,0.572,1.139,1.433,1.768,1.549c0.015,0.156,0.068,0.308,0.158,0.44
		c0.521,0.767,1.344,1.373,1.72,1.625l4.602,3.841l-2.17,0.621l-0.278,0.077l-0.185,0.218l-6.996,8.23l-0.61,0.716l0.725,0.604
		l4.049,3.376l-3.537,4.128l-4.031-3.361l-0.722-0.606l-0.611,0.718l-7.473,8.788l-0.611,0.718l0.725,0.603l8.652,7.216l4.582,3.816
		l0.775,0.652l0.725,0.608l0.61-0.721l6.933-8.157l0.607-0.717l-0.725-0.604l-3.408-2.846l3.592-4.219l3.407,2.844l0.725,0.602
		l0.609-0.717l1.847-2.167l4.263,3.551l-1.851,2.174l-0.61,0.72l0.725,0.604l3.418,2.844l-3.59,4.218l-3.418-2.845l-0.723-0.603
		l-0.609,0.718l-6.93,8.153l-0.607,0.718l0.724,0.604l6.976,5.816l0.644,0.533l5.498,4.588l0.723,0.602l0.611-0.717l8.138-9.582
		l0.611-0.716l-0.725-0.604l-2.021-1.688l3.637-4.275l2.92,2.429l0.732,0.61l0.607-0.735l5.766-6.974l0.295-0.357l-0.104-0.449
		l-0.874-3.692l1.083,0.834c-0.335,7.283,0.134,16.422,4.317,21.361c0.245,0.291,0.502,0.566,0.765,0.827l-0.009,70.299
		l-9.618,7.932c-1.758-1.521-3.811-0.85-5.6,0.266c-3.877-2.289-8.28-3.668-12.895-3.984c-1.019-0.072-2.039-0.092-3.063-0.057
		c-3.008,0.107-5.958,0.672-8.764,1.668c-1.945-2.346-4.207-2.881-6.873-1.607c-0.713-0.768-1.678-1.338-2.607-1.535
		c-2.609-0.547-4.977,0.961-5.527,3.547c-0.234,1.088,0.066,2.441,0.681,3.549c-2.152,2.307-2.255,4.842-0.215,7.42
		c-2.686,4.078-4.306,8.793-4.655,13.756c-0.324,4.686,0.497,9.311,2.354,13.52c-2.234,2.086-2.617,4.363-1.15,6.912
		c-0.729,0.762-1.233,1.75-1.36,2.682c-0.373,2.637,1.292,4.85,3.958,5.215c1.111,0.15,2.452-0.234,3.52-0.92
		c2.468,1.957,5.019,1.893,7.471-0.285c3.063,1.699,6.421,2.846,9.944,3.359c-0.113,4.029-0.214,8.063-0.351,12.119
		c-1.042,0.818-1.76,2.26-1.632,4.332c0.09,2.572-3.882,0.604-3.739,6.66c-0.292,3.227-0.955,7.357-1.302,10.531
		c-0.156,1.424,17.829,1.631,17.782,0.244c-0.081-2.094-1.148-7.352-1.392-10.469c0.444-5.324-3.759-4.666-3.536-6.939
		c0.172-1.855-0.353-3.213-1.193-4.072c0.083-4.066,0.166-8.133,0.291-12.102c1.967-0.043,3.911-0.281,5.807-0.707
		c0.013,0.705,0.025,1.404,0.035,2.084c0.006,0.455,0.146,0.873,0.465,1.344c1.034,1.555,2.729,2.441,4.788,2.539
		c0.206,0.018,0.417,0.027,0.63,0.027c0.04,0,0.075,0,0.117,0l0.185-0.002v0.393c0.004,0.896,0,1.797-0.004,2.688
		c-0.025,6.445-0.05,12.537,2.39,18.533l0.112,0.271l0.231,0.197c3.077,2.607,6.34,4.443,9.959,5.613l0.49,0.148l-0.259,0.447
		c-1.022,1.709-2.34,3.297-3.61,4.84c-0.356,0.426-0.724,0.871-1.076,1.309l1.47,0.912c2.519,1.48,5.11,2.891,7.762,4.223v-0.094
		c3.885,1.963,7.904,3.76,12.015,5.369c16.962,6.656,36.12,10.311,55.398,10.553c19.266-0.238,38.427-3.887,55.396-10.539
		c6.828-2.672,13.404-5.863,19.548-9.475l1.469-0.912c-0.353-0.438-0.719-0.881-1.076-1.311c-1.27-1.539-2.587-3.129-3.61-4.836
		l-0.258-0.449l0.49-0.146c3.618-1.172,6.88-3.006,9.958-5.615l0.232-0.197l0.112-0.271c2.438-5.996,2.412-12.086,2.39-18.533
		c-0.006-0.889-0.01-1.791-0.006-2.686v-0.41h0.421c0.044,0,0.083,0,0.121,0c2.236,0.004,4.079-0.896,5.179-2.549
		c0.32-0.469,0.459-0.889,0.466-1.344c0.009-0.68,0.021-1.379,0.033-2.084c1.896,0.428,3.841,0.666,5.81,0.707
		c0.124,3.967,0.207,8.035,0.288,12.102c-0.84,0.859-1.364,2.217-1.192,4.072c0.222,2.275-3.98,1.617-3.535,6.939
		c-0.242,3.117-1.313,8.375-1.392,10.467c-0.047,1.389,17.938,1.184,17.782-0.24c-0.348-3.174-1.011-7.307-1.303-10.533
		c0.142-6.055-3.829-4.088-3.739-6.66c0.127-2.072-0.59-3.512-1.632-4.332c-0.136-4.055-0.237-8.09-0.351-12.119
		c3.523-0.514,6.883-1.66,9.943-3.359c2.453,2.178,5.005,2.24,7.472,0.285c1.067,0.688,2.408,1.074,3.52,0.92
		c2.667-0.365,4.331-2.578,3.959-5.215c-0.129-0.934-0.632-1.922-1.36-2.682c1.467-2.549,1.082-4.826-1.15-6.912
		c1.855-4.207,2.677-8.834,2.353-13.518c-0.349-4.965-1.97-9.68-4.655-13.758c2.04-2.576,1.938-5.113-0.213-7.418
		c0.613-1.109,0.914-2.461,0.68-3.551c-0.551-2.584-2.918-4.094-5.529-3.545c-0.929,0.193-1.894,0.768-2.605,1.533
		c-2.666-1.273-4.929-0.738-6.873,1.609c-2.807-0.998-5.758-1.563-8.765-1.67c-1.023-0.033-2.043-0.016-3.063,0.057
		c-4.614,0.316-9.017,1.695-12.894,3.984c-1.79-1.115-3.844-1.787-5.601-0.266l-10.166-8.385l0.01-69.864
		c0.262-0.263,0.519-0.536,0.766-0.827c4.183-4.942,4.653-14.086,4.317-21.369l1.086-0.835l-0.876,3.699l-0.104,0.45l0.296,0.356
		l5.763,6.979l0.609,0.736l0.734-0.612l2.915-2.43l3.638,4.279l-2.021,1.688l-0.723,0.603l0.606,0.717l8.14,9.582l0.61,0.719
		l0.725-0.605l5.5-4.583l0.642-0.533l6.974-5.818l0.726-0.603l-0.61-0.717l-6.923-8.156l-0.609-0.718l-0.725,0.604l-3.419,2.845
		l-3.587-4.221l3.417-2.843l0.727-0.604l-0.61-0.718l-1.851-2.176l4.266-3.549l1.844,2.167l0.609,0.717l0.724-0.604l3.414-2.841
		l3.588,4.22l-3.412,2.843l-0.724,0.604l0.607,0.718l6.932,8.16l0.613,0.721l0.723-0.608l0.777-0.653l4.577-3.814l8.657-7.212
		l0.725-0.603v-0.004l-0.609-0.713l-7.473-8.794l-0.608-0.716l-0.724,0.606l-4.034,3.359l-3.533-4.128l4.048-3.376l0.724-0.604
		l-0.607-0.716l-6.994-8.23l-0.189-0.218l-0.274-0.079l-2.169-0.62l4.602-3.838c0.372-0.251,1.195-0.855,1.72-1.626
		c0.088-0.132,0.142-0.283,0.156-0.438c0.628-0.114,1.481-0.975,1.773-1.548c0.331-0.65,0.284-1.332-0.122-1.875
		c-0.393-0.521-0.757-0.995-1.102-1.435c0.049-0.003,0.098-0.011,0.147-0.023c1.469-0.355,2.692-1.523,3.121-2.972
		c0.38-1.287,0.068-2.57-0.854-3.521c-0.674-0.699-1.61-1.085-2.64-1.085c-1.854,0-3.544,1.187-4.062,2.841
		c-0.482-0.47-1.005-0.962-1.583-1.491c-0.32-0.295-0.723-0.453-1.161-0.455c-1.068,0-2.151,1.025-2.412,1.574
		c-0.043-0.006-0.089-0.01-0.134-0.01c-0.151,0-0.306,0.038-0.446,0.111c-0.251,0.134-0.502,0.295-0.74,0.481
		c-0.053,0.027-0.104,0.061-0.152,0.099l-5.49,4.404c-1.051-1.184-2.054-2.361-2.897-3.322c-0.153-0.864-1.336-1.699-1.468-1.832
		c-4.18-4.338-6.616-9.382-13.074-10.617c-2.055-0.395-4.152-0.408-6.147-0.032c-4.003,1.139-10.971,5.193-13.196,8.589
		c-1.973,2.999-3.208,6.379-4.035,9.83c-1.398,5.8-1.742,12.038-1.09,17.823c0.453,3.961,1.154,7.863,1.737,11.792
		c-6.717,5.392-13.088,10.51-18.225,14.636c-3.549,2.853-6.51,5.23-8.578,6.896c-0.888,0.716-1.557,1.254-2.059,1.665l-6.491,0.008
		c-0.673-1.217-1.294-2.489-1.837-3.795c1.626-0.651,3.22-1.623,3.545-3.027l0.081-0.118c3.754-4.907,6.313-10.062,7.973-15.537
		c0.538-1.265,1.181-2.467,2.219-3.479c0.286-0.283,1.859-1.555,1.979-1.782c0.089-0.164,0.13-0.314,0.108-0.549
		c-0.079-1.027-1.338-1.076-2.104-1.032c-0.204,0.01-0.409,0.03-0.615,0.058c0.417-2.447,0.692-4.957,0.848-7.537
		c0.034-0.549,0.057-1.099,0.071-1.646l0.001-0.008c0.892-2.181,1.521-4.443,3.265-6.146c0.29-0.276,1.868-1.549,1.99-1.778
		c0.087-0.168,0.129-0.315,0.11-0.547c-0.092-1.035-1.346-1.078-2.116-1.035c-0.941,0.052-1.943,0.296-2.768,0.744
		c-0.269,0.14-0.525,0.308-0.755,0.504c-0.087,0.07-0.171,0.143-0.251,0.22c-0.43-2.633-1.126-5.201-2.12-7.684
		c0.105-0.185,0.203-0.372,0.294-0.562c0.485-0.987,0.788-2.064,0.889-3.162c0.893-2.184,1.52-4.435,3.27-6.147
		c0.282-0.279,1.869-1.553,1.983-1.782c0.087-0.166,0.13-0.312,0.112-0.548c-0.088-1.024-1.347-1.074-2.111-1.034
		c-0.945,0.056-1.943,0.296-2.775,0.748c-0.262,0.142-0.516,0.312-0.751,0.506c-0.252,0.206-0.476,0.438-0.657,0.691
		c-0.184-0.206-0.411-0.381-0.689-0.5c-1.864-0.813-3.871,1.107-4.825,2.814c-4.61-5.729-10.885-10.036-17.553-13.103
		c0.022-0.162,0.026-0.327,0.026-0.494c0-2.25-1.378-4.186-3.348-5.019v-5.755l3.021,0v-4.275l-3.021,0V8.202h-4.325v2.871h-3.02
		v4.275l3.02,0.001l-0.002,5.755c-1.967,0.833-3.349,2.769-3.349,5.019c0,0.166,0.007,0.333,0.02,0.493
		c-6.717,3.087-12.805,7.434-17.379,13.226c-0.922-1.737-2.982-3.777-4.892-2.944c-0.281,0.118-0.513,0.295-0.691,0.5
		c-0.356-0.493-0.842-0.895-1.41-1.198c-0.826-0.45-1.83-0.691-2.771-0.747c-0.772-0.041-2.021,0.01-2.114,1.034
		c-0.017,0.236,0.024,0.382,0.112,0.547c0.117,0.229,1.698,1.504,1.984,1.784c1.748,1.712,2.38,3.962,3.268,6.149
		c0.123,1.374,0.575,2.718,1.287,3.907c-0.956,2.425-1.63,4.933-2.051,7.501c-0.289-0.283-0.628-0.527-1.002-0.729
		c-0.829-0.448-1.832-0.693-2.773-0.746c-0.768-0.041-2.023,0-2.109,1.036c-0.023,0.232,0.023,0.378,0.111,0.547
		c0.116,0.228,1.695,1.502,1.98,1.777c1.749,1.702,2.374,3.958,3.27,6.135c0.013,0.555,0.037,1.11,0.07,1.667
		c0.152,2.573,0.428,5.085,0.847,7.537c-0.205-0.028-0.41-0.048-0.612-0.058c-0.77-0.043-2.023,0.005-2.113,1.032
		c-0.02,0.234,0.021,0.384,0.113,0.556c0.117,0.221,1.697,1.492,1.98,1.776c1.034,1.01,1.678,2.209,2.214,3.473
		c1.669,5.53,4.244,10.74,8.003,15.665l0.067,0.094C115.875,97.49,117.434,98.433,119.022,99.068z M133.021,102.893
		c0.136-0.451,0.274-0.957,0.404-1.38c-3.856-0.111-7.905-0.513-11.546-1.489c-0.675-0.183-1.604-0.451-2.552-0.837
		c0.945,0.355,1.878,0.606,2.552,0.773c4.375,1.096,9.353,1.446,13.853,1.446c4.504,0.001,9.479-0.349,13.857-1.442
		c0.73-0.182,1.769-0.463,2.798-0.871c-1.029,0.438-2.065,0.737-2.798,0.935c-3.644,0.976-7.693,1.374-11.549,1.486
		c0.142,0.46,0.292,0.918,0.438,1.372L133.021,102.893z M166.57,239.047c0.293,0.443,0.582,0.889,0.87,1.334l27.657-15.848
		l0.862-3.33L166.57,239.047z M165.202,237.04c0.346,0.486,0.685,0.979,1.015,1.477l29.348-17.766l-3.367,0.373L165.202,237.04z
		 M157.399,229.383c0.411,0.314,0.819,0.631,1.225,0.955l27.669-35.17l0.002-3.596L157.399,229.383z M155.415,227.958
		c0.499,0.34,0.989,0.689,1.473,1.045l29.027-37.709l-2.469,0.627L155.415,227.958z M149.092,224.833l0.179,0.064
		c0.088-0.469,0.187-0.943,0.298-1.418L149.092,224.833z M147.063,224.122c0.487,0.164,0.971,0.332,1.453,0.506l18.175-51.236
		l-1.92-2.238L147.063,224.122z M144.72,223.401c0.583,0.16,1.161,0.336,1.735,0.521l17.879-53.023l-2.155,1.344L144.72,223.401z
		 M134.546,222.221c0.514-0.004,1.026,0.002,1.54,0.012l1.26-57.15l-2.528-1.768L134.546,222.221z M132.971,222.26
		c0.312-0.014,0.622-0.023,0.933-0.029l0.417-59.057l-1.629,1.945l-0.603,57.051L132.971,222.26z M123.17,224.157
		c0.451-0.166,0.906-0.322,1.366-0.469c-0.203-0.982-0.394-1.998-0.562-3.031l-15.695-49.361l-2.871-1.219L123.17,224.157z
		 M121.122,224.938c0.48-0.186,0.961-0.373,1.442-0.555l-17.601-54.051l-1.225,2.111L121.122,224.938z M117.595,216.192
		c0.245,1.146,0.379,2.336,0.54,3.438c0.267,1.865,0.622,4.266,2.101,5.645l0.311-0.117L117.595,216.192z M113.236,229.28
		c0.317-0.229,0.64-0.451,0.961-0.674l0.5-0.396l-28.792-37.02l-2.468-0.627L113.236,229.28z M111.502,230.592
		c0.399-0.318,0.805-0.631,1.216-0.934l-29.66-38.816l0.001,3.596L111.502,230.592z M105.177,237.043
		c0.349-0.457,0.707-0.908,1.076-1.355c-0.202-0.152-0.401-0.309-0.601-0.465L77.613,218.69l-3.368-0.371L105.177,237.043z
		 M103.899,238.825c0.287-0.428,0.585-0.85,0.892-1.268L73.85,218.772l0.862,3.33L103.899,238.825z M135.507,113.604
		c-7.109-6.471-18.018-0.735-26.891-0.736c-0.081,13.851-0.163,27.707-0.247,41.559c8.401,0,19.764-4.768,26.396,0.004
		c0.796,0,0.346,0,1.141,0c9.367-4.152,19.642,0.004,28.124,0.004l0.247-41.563C155.474,112.873,145.926,106.826,135.507,113.604z
		 M135.62,111.994c5.334-3.2,11.004-3.464,17.147-2.146c3.326,0.723,8.076,1.725,11.51,1.725h1.317l-0.256,44.162h-1.309
		c-9.027-0.002-18.582-4.101-27.55-0.121l-0.254,0.117c-0.616,0-1.217-0.041-1.833-0.041l-0.335-0.211
		c-0.685-0.492-1.491-0.876-2.287-1.165c-3.928-1.422-9.18-0.378-13.187,0.33c-2.959,0.528-7.204,1.083-10.216,1.083h-1.314
		l0.004-1.306c0.081-13.857,0.162-27.709,0.242-41.567l0.008-1.287h1.308C117.215,111.568,127.964,106.014,135.62,111.994z
		 M152.33,134.989l-2.934-0.001v-0.35c0.261-0.018,0.477-0.046,0.646-0.098c0.174-0.049,0.259-0.11,0.259-0.186
		c0-0.025-0.007-0.062-0.011-0.105c-0.008-0.041-0.02-0.077-0.03-0.111l-0.586-1.564l-2.479-0.001
		c-0.091,0.228-0.162,0.43-0.223,0.599c-0.061,0.172-0.111,0.328-0.157,0.474c-0.043,0.142-0.073,0.256-0.09,0.346
		c-0.021,0.087-0.028,0.16-0.028,0.215c0,0.129,0.106,0.23,0.314,0.306c0.21,0.069,0.443,0.11,0.704,0.126v0.351h-2.654v-0.351
		c0.085-0.005,0.193-0.025,0.325-0.057c0.128-0.031,0.235-0.07,0.315-0.125c0.136-0.089,0.237-0.182,0.31-0.275
		c0.075-0.099,0.146-0.234,0.213-0.4c0.357-0.876,0.748-1.862,1.176-2.952c0.427-1.093,0.808-2.066,1.146-2.916h0.397l2.353,6.018
		c0.051,0.132,0.104,0.233,0.168,0.311c0.063,0.078,0.147,0.155,0.264,0.231c0.074,0.048,0.173,0.088,0.298,0.114
		c0.123,0.032,0.228,0.049,0.306,0.053V134.989z M149.494,132.134l-1.069-2.708l-1.054,2.708H149.494z M156.979,131.784
		c0.149,0.169,0.259,0.348,0.329,0.541c0.071,0.192,0.107,0.423,0.107,0.681c0,0.619-0.229,1.125-0.693,1.523
		c-0.457,0.402-1.028,0.603-1.714,0.603c-0.314,0-0.63-0.048-0.945-0.146c-0.312-0.098-0.588-0.216-0.816-0.353l-0.212,0.359h-0.396
		l-0.072-2.389h0.407c0.077,0.294,0.176,0.563,0.286,0.8c0.116,0.234,0.258,0.457,0.441,0.665c0.173,0.195,0.376,0.347,0.604,0.46
		c0.23,0.116,0.5,0.176,0.807,0.176c0.229,0,0.429-0.031,0.596-0.092c0.173-0.054,0.314-0.142,0.413-0.25
		c0.11-0.107,0.188-0.235,0.241-0.381c0.05-0.146,0.077-0.313,0.077-0.506c0-0.278-0.078-0.536-0.241-0.777
		c-0.157-0.244-0.396-0.43-0.711-0.552c-0.215-0.085-0.461-0.18-0.739-0.281c-0.278-0.104-0.518-0.199-0.724-0.292
		c-0.396-0.176-0.708-0.409-0.926-0.697c-0.22-0.286-0.334-0.659-0.334-1.12c0-0.268,0.056-0.516,0.166-0.744
		c0.108-0.23,0.268-0.437,0.473-0.616c0.191-0.17,0.414-0.302,0.676-0.397c0.265-0.099,0.541-0.149,0.821-0.149
		c0.327,0,0.615,0.051,0.872,0.151c0.258,0.097,0.494,0.214,0.704,0.344l0.207-0.335h0.396l0.039,2.318h-0.404
		c-0.073-0.269-0.151-0.521-0.243-0.762c-0.088-0.245-0.209-0.464-0.356-0.66c-0.144-0.19-0.315-0.344-0.521-0.456
		c-0.205-0.114-0.455-0.17-0.756-0.17c-0.314,0-0.582,0.101-0.808,0.299c-0.222,0.201-0.332,0.445-0.332,0.733
		c0,0.304,0.07,0.554,0.213,0.752c0.143,0.194,0.353,0.36,0.623,0.489c0.241,0.114,0.48,0.21,0.717,0.297
		c0.229,0.081,0.458,0.17,0.674,0.268c0.197,0.087,0.393,0.184,0.573,0.293C156.684,131.514,156.839,131.644,156.979,131.784z
		 M145.193,129.903h-0.346c-0.028-0.121-0.081-0.259-0.159-0.421c-0.079-0.163-0.168-0.316-0.264-0.463
		c-0.102-0.15-0.209-0.282-0.329-0.395c-0.116-0.111-0.231-0.175-0.339-0.192c-0.104-0.011-0.234-0.023-0.391-0.03
		c-0.157-0.007-0.299-0.009-0.433-0.009h-0.291v5.577c0,0.111,0.023,0.213,0.068,0.299c0.05,0.093,0.131,0.162,0.246,0.21
		c0.061,0.021,0.187,0.054,0.376,0.094c0.189,0.037,0.336,0.061,0.444,0.064v0.349h-3.332v-0.349
		c0.095-0.005,0.233-0.021,0.422-0.041c0.197-0.019,0.324-0.04,0.401-0.069c0.104-0.047,0.187-0.104,0.241-0.187
		c0.049-0.079,0.073-0.188,0.073-0.325v-5.622h-0.285c-0.106,0-0.23,0.002-0.384,0.007c-0.151,0.004-0.298,0.014-0.439,0.032
		c-0.11,0.01-0.223,0.074-0.339,0.191c-0.118,0.118-0.228,0.251-0.326,0.396c-0.102,0.15-0.19,0.305-0.267,0.472
		c-0.073,0.168-0.127,0.301-0.159,0.411h-0.346v-1.896l6.155,0.002V129.903z M138.564,134.986l-3.179-0.001v-0.349
		c0.091-0.004,0.223-0.019,0.389-0.028c0.168-0.013,0.29-0.035,0.36-0.061c0.104-0.044,0.186-0.1,0.235-0.173
		c0.053-0.074,0.075-0.175,0.075-0.308l0.001-5.057c0-0.115-0.019-0.209-0.053-0.289c-0.037-0.077-0.124-0.143-0.259-0.194
		c-0.099-0.038-0.225-0.073-0.377-0.107c-0.149-0.036-0.273-0.057-0.372-0.063v-0.351h3.183v0.352
		c-0.103,0.003-0.229,0.016-0.37,0.038c-0.142,0.019-0.269,0.047-0.372,0.078c-0.126,0.04-0.215,0.103-0.258,0.194
		c-0.042,0.086-0.063,0.186-0.063,0.296v5.051c0,0.109,0.023,0.201,0.07,0.286c0.049,0.085,0.132,0.149,0.25,0.198
		c0.068,0.028,0.181,0.058,0.338,0.086c0.157,0.032,0.291,0.049,0.4,0.052V134.986z M135.207,134.985h-1.899
		c-0.421-0.65-0.802-1.219-1.139-1.691c-0.341-0.475-0.708-0.967-1.107-1.471h-0.724v2.215c0,0.113,0.018,0.215,0.058,0.301
		c0.035,0.088,0.113,0.152,0.231,0.2c0.062,0.021,0.161,0.039,0.314,0.062c0.15,0.02,0.274,0.032,0.379,0.034v0.351h-2.986v-0.351
		c0.076-0.004,0.192-0.018,0.348-0.034c0.148-0.015,0.254-0.033,0.313-0.062c0.102-0.044,0.171-0.106,0.217-0.188
		s0.066-0.186,0.066-0.313l0.002-5.046c0-0.114-0.019-0.218-0.05-0.309c-0.032-0.085-0.11-0.154-0.234-0.2
		c-0.082-0.029-0.189-0.059-0.324-0.081c-0.13-0.021-0.246-0.041-0.338-0.047v-0.351h3.26c0.296,0,0.577,0.028,0.838,0.093
		c0.265,0.062,0.501,0.158,0.714,0.295c0.204,0.129,0.368,0.301,0.491,0.512c0.124,0.212,0.185,0.468,0.183,0.765
		c0,0.27-0.041,0.509-0.123,0.715c-0.083,0.205-0.203,0.385-0.369,0.537c-0.147,0.14-0.327,0.262-0.538,0.364
		c-0.207,0.102-0.435,0.19-0.69,0.262c0.347,0.457,0.637,0.84,0.868,1.153c0.231,0.31,0.517,0.689,0.851,1.132
		c0.142,0.198,0.277,0.348,0.395,0.437c0.116,0.095,0.234,0.171,0.35,0.23c0.085,0.045,0.194,0.074,0.322,0.097
		c0.13,0.022,0.237,0.038,0.323,0.041V134.985z M132.593,129.784c0-0.42-0.124-0.757-0.366-1.006
		c-0.248-0.243-0.593-0.369-1.042-0.369h-0.846l-0.001,2.991h0.652c0.461,0,0.838-0.146,1.145-0.434
		C132.438,130.679,132.593,130.283,132.593,129.784z M127.615,132.93l-0.135,2.056h-5.86v-0.352c0.098-0.004,0.229-0.02,0.394-0.04
		c0.169-0.024,0.276-0.044,0.324-0.069c0.107-0.048,0.181-0.109,0.221-0.189c0.044-0.079,0.065-0.176,0.065-0.3v-5.019
		c0-0.105-0.016-0.204-0.056-0.285c-0.036-0.084-0.111-0.155-0.229-0.206c-0.087-0.04-0.207-0.079-0.36-0.111
		c-0.149-0.032-0.273-0.054-0.359-0.059v-0.352l5.46,0.001v1.686h-0.373c-0.063-0.253-0.209-0.517-0.43-0.796
		c-0.218-0.278-0.43-0.433-0.628-0.462c-0.104-0.011-0.226-0.02-0.369-0.026c-0.142-0.009-0.304-0.013-0.485-0.013h-1.111v2.774
		h0.793c0.258,0,0.443-0.022,0.563-0.07c0.116-0.047,0.221-0.127,0.312-0.236c0.073-0.101,0.134-0.223,0.187-0.384
		c0.051-0.159,0.085-0.305,0.101-0.45h0.373v2.735h-0.373c-0.013-0.158-0.048-0.324-0.106-0.501
		c-0.057-0.177-0.117-0.304-0.181-0.377c-0.104-0.13-0.22-0.211-0.352-0.257c-0.132-0.034-0.306-0.055-0.522-0.055h-0.793
		l-0.002,2.092c0,0.209,0.016,0.373,0.045,0.494c0.029,0.123,0.09,0.214,0.174,0.275c0.087,0.062,0.204,0.099,0.356,0.121
		c0.146,0.014,0.36,0.022,0.632,0.022c0.112,0,0.256,0,0.434,0c0.183,0,0.332-0.005,0.454-0.014c0.126-0.017,0.257-0.04,0.394-0.073
		c0.133-0.035,0.228-0.083,0.284-0.141c0.152-0.154,0.313-0.394,0.478-0.714c0.17-0.321,0.275-0.557,0.325-0.707H127.615z
		 M121.398,128.355c-0.083,0.002-0.188,0.025-0.313,0.055c-0.121,0.036-0.223,0.076-0.304,0.125c-0.11,0.069-0.2,0.158-0.271,0.27
		c-0.067,0.106-0.133,0.235-0.202,0.382c-0.222,0.521-0.555,1.332-0.997,2.436c-0.445,1.104-0.902,2.254-1.376,3.451h-0.41
		c-0.48-1.27-0.938-2.491-1.384-3.668c-0.445-1.18-0.745-1.973-0.905-2.389c-0.038-0.102-0.093-0.189-0.159-0.265
		c-0.068-0.08-0.154-0.149-0.263-0.223c-0.09-0.053-0.189-0.095-0.299-0.124c-0.11-0.027-0.211-0.046-0.302-0.05v-0.352h2.921v0.352
		c-0.249,0.01-0.459,0.037-0.634,0.073c-0.17,0.036-0.255,0.099-0.255,0.191c0,0.036,0.009,0.08,0.021,0.126
		c0.014,0.053,0.028,0.091,0.036,0.12c0.12,0.319,0.319,0.842,0.597,1.574c0.276,0.722,0.667,1.76,1.172,3.104
		c0.254-0.61,0.543-1.328,0.87-2.152c0.328-0.829,0.549-1.396,0.661-1.702c0.111-0.302,0.175-0.51,0.193-0.625
		c0.019-0.111,0.027-0.206,0.027-0.279c0-0.074-0.034-0.138-0.101-0.188c-0.069-0.052-0.158-0.094-0.272-0.133
		c-0.11-0.031-0.219-0.056-0.331-0.072c-0.113-0.013-0.228-0.03-0.344-0.038v-0.352h2.622V128.355z M135.912,260.383
		c-2.899-3.834-9.879-11.057-17.476-11.086l-0.299-0.002h-0.091h-0.208h-0.181h-0.118h-0.261l0.756,0.002
		c4.862,0.018,9.584,2.982,13.116,6.121c-1.575-1.443-3.402-2.842-5.41-3.91c-2.27-1.316-4.745-2.201-7.305-2.211
		c-0.522-0.002-1.046-0.004-1.568-0.004h-0.03c-5.153-0.004-10.329,0.115-15.498,0.139v-0.004c-0.203,0-0.406,0.004-0.608,0.006
		h-0.012h-0.012h-0.012h-0.012h-0.011h-0.013h-0.013h-0.011h-0.253c0.204-1.545,0.672-2.16,0.945-3.387
		c-1.994-0.461-4.216-2.658-6.4-3.662c-1.26-1.09-2.025-0.273-3.516-0.721c-2.044-1.08-2.489-2.621-5.012-3.98
		c-2.942-0.672-8.529-2.1-9.217-5.303c2.775,1.113,5.739,2.227,9.08,1.84c2.137,1.053,3.898,2.473,5.003,4.367
		c1.944,0.83,5.575,1.383,7.515,1.74c1.359,1.494,1.977,2.668,3.712,3.406c1.286-3.131,3.161-5.66,5.353-8.242
		c-1.613-1.121-4.639-3.746-6.255-4.863c-1.71-2.045-0.882-2.402-2.687-4.451c-2.103-1.896-4.296-2.473-6.869-4.176
		c-2.583-1.893-2.721-5.293-5.02-7.375c-2-1.461-3.252-1.982-5.624-2.98c-2.61-2.33-5.217-5.594-5.566-8.971
		c2.364,2.52,3.319,3.906,6.716,5.572c2.138-0.236,6.58,2.523,6.911,3.127c1.573,2.781,2.872,5.936,5.106,8.346
		c4.363,2.512,4.977,1.85,8.771,4.906c1.323,2.938,4.284,6.977,6.55,8.877c1.937-1.938,4.115-3.471,6.455-5.01
		c-1.191-2.463-2.925-3.859-4.491-6.045c-0.789-2.438-0.727-4.41-1.229-7.314c-1.354-3.705-5.624-6.561-7.353-9.98
		c-0.559-5.299-2.428-9.637-7.524-13.516c-1.263-3.266-3.001-7.939-1.165-11.484c1.685,7.43,8.627,10.455,11.255,15.727
		c1.158,2.443,0.864,8.574,3.238,11.098c2.296,2.451,5.428,4.334,6.783,7.348c1.65,3.557,0.549,9.656,4.171,12.188
		c1.936-0.689,3.806-1.543,5.805-2.057c-1.176-5.406-2.148-12.229-0.546-17.645c-0.334-3.322-1.96-5.16-3.834-8.297
		c-0.813-4.447,0.814-8.885-0.187-13.332c-0.885-3.789-3.334-5.672-3.116-8.461c-0.693-3.242,0.403-8.455,2.346-10.568
		c-0.347,8.895,2.414,11.609,5.734,16.467c1.021,5.602-1.247,11.299,0.522,16.525c5.939,8.643,3.914,15.225,3.93,24.369
		c1.796-0.191,3.513-0.232,5.227-0.201c1.002,0.02,2.005,0.066,3.019,0.119c-0.856-6.223-0.198-12.344,3.476-16.725
		c0.775-3.082-0.383-6.072-0.552-9.016c-0.298-5.029,3.868-9.416,3.935-14.09c-1.573-6.439-0.877-13.486,4.513-17.391
		c-2.047,6.766-1.475,11.619,0.513,16.863c0.035,4.895-3.584,8.588-4.068,13.061c-1.206,3.844,0.747,9.391,0.626,13.014
		c-0.915,6.361-4.731,8.994-4.273,14.965c2.413,0.549,4.771,1.445,7.053,2.262c0.406-2.658,1.167-5.867,2.636-8.209
		c2.301-3.193,6.076-5.129,6.383-9.684c0.21-4.033,1.159-5.441,5.991-10.203c3.608-2.967,2.167-9.029,3.985-11.709
		c2.288-2.695,4.155-5.707,7.709-6.734c-3.307,3.666-4.719,10.166-4.769,15.197c-1.264,5.512-7.685,7.986-9.166,13.809
		c1.019,4.971-1.954,9.197-5.456,12.588c-2.06,1.332-3.826,3.393-4.129,6.477c2.54,1.566,4.714,3.295,6.909,5.205
		c2.591-4.514,7.494-5.605,10.541-8.268c1.63-4.588,5-7.795,9.177-9.389c3.271-2.656,3.979-6.338,7.251-8.998
		c1.457-0.971,5.524-1.066,6.98-2.035c-2.305,3.141-6.92,6.092-7.699,10.32c-4.048,3.748-8.285,5.721-11.752,9.986
		c-0.907,2.408-2.619,5.096-4.788,6.99c-2.008,1.467-5.294,1.416-7.18,3.922c1.755,2.143,3.337,4.73,4.886,7.076
		c3.54,0.021,6.418-3.434,11.267-5.645c4.481-0.871,5.153-1.342,8.028-4.332c2.212-1.002,4.666-1.875,7.186-1.445
		c-5.803,1.986-4.332,4.955-9.324,7.246c-2.756,0.723-4.77,0.699-6.346,1.545c-3.76,2.686-4.624,5.555-9.555,5.32l1.348,3.971
		h-2.438h-16.117h-0.012h-0.043h-0.356h-0.074h-0.4C145.036,249.758,139.754,255.788,135.912,260.383z M161.532,249.379h-0.397h-0.4
		H161.532z M163.506,249.379h-0.388h-0.395H163.506z M166.251,249.383l-0.385-0.004h-0.392L166.251,249.383z M168.227,249.383
		h-0.392h-0.396H168.227z M99.272,249.434l0.005-0.025c0.124-1.059,0.439-1.816,0.713-2.664c-1.922-0.836-3.658-2.508-5.525-3.367
		l-0.143-0.064l-0.12-0.102c-0.245-0.209-0.431-0.322-0.751-0.332c-0.911-0.037-1.383,0.123-2.358-0.17l-0.101-0.029l-0.098-0.051
		c-1.982-1.043-2.93-2.801-4.893-3.914c-3.37-0.777-9.084-2.311-9.901-6.104l-0.433-2.014l1.934,0.777
		c2.736,1.094,5.52,2.107,8.529,1.762l0.324-0.035l0.298,0.141c2.118,1.037,4.013,2.482,5.275,4.469
		c2,0.773,4.893,1.162,6.958,1.549l0.364,0.064l0.251,0.277c0.789,0.865,1.455,1.865,2.376,2.572
		c0.474-0.99,1.004-1.928,1.584-2.834l-29.3-16.902l-1.331-4.74l5.058,0.543l25.013,14.828c-0.669-0.537-1.343-1.061-2.04-1.543
		l-0.127-0.084l-0.093-0.117c-0.708-0.842-1.091-1.512-1.485-2.521c-0.296-0.777-0.594-1.234-1.137-1.861
		c-1.912-1.695-4.55-2.611-6.697-4.035l-0.02-0.014l-0.024-0.02c-2.845-2.084-2.896-5.4-5.064-7.406
		c-1.812-1.309-3.289-1.947-5.351-2.807l-0.172-0.08l-0.142-0.123c-2.731-2.439-5.53-5.93-5.923-9.662l-0.34-3.242l2.246,2.383
		c2.225,2.359,3.23,3.727,6.144,5.207c1.222-0.012,2.638,0.539,3.683,1.025c0.943,0.443,3.464,1.768,3.963,2.678
		c1.51,2.664,2.766,5.713,4.836,8.012c1.511,0.85,2.912,1.451,4.478,2.166c1.612,0.746,2.913,1.641,4.292,2.758l0.203,0.16
		l0.107,0.238c1.082,2.398,3.426,5.773,5.521,7.826c0.382-0.354,0.771-0.693,1.169-1.025l-28.511-36.393l0.174-4.725l3.726,1.043
		l24.169,31.18c-0.587-2.199-0.662-4.432-1.043-6.678c-1.337-3.512-5.474-6.227-7.264-9.768l-0.093-0.176l-0.024-0.199
		c-0.576-5.492-2.604-9.344-7.094-12.764l-0.249-0.188l-0.111-0.285c-1.456-3.762-3.114-8.512-1.114-12.377l1.393-2.695l0.668,2.955
		c0.757,3.33,2.656,5.748,4.991,8.158c2.197,2.264,4.759,4.479,6.183,7.346c1.356,2.873,0.903,8.539,3.053,10.818
		c2.317,2.48,5.38,4.285,6.883,7.436l-13.587-41.252l1.891-3.141l3.79,1.908l14.715,46.496c-0.396-3.738-0.369-7.574,0.587-10.961
		c-0.377-3-2.146-5.105-3.667-7.652l-0.095-0.172l-0.038-0.189c-0.82-4.459,0.791-9.002-0.175-13.273
		c-0.313-1.33-0.857-2.467-1.505-3.662c-0.599-1.107-1.237-2.211-1.512-3.445c-0.114-0.502-0.165-1.014-0.136-1.533
		c-0.647-3.334,0.333-8.861,2.636-11.373l2.04-2.219l-0.113,3c-0.157,4.072,0.237,7.504,2.332,11.068
		c0.964,1.635,2.138,3.174,3.213,4.748l0.134,0.189l0.036,0.223c0.886,4.842-0.644,9.494-0.015,14.16
		c0.092,0.703,0.241,1.393,0.457,2.07c2.329,3.426,3.454,6.473,3.958,9.49l0.399-42.99l2.305-2.896l3.458,2.641l-1.174,57.342
		c0.325,0.01,0.648,0.021,0.975,0.035c-0.579-5.574,0.072-11.584,3.7-16.064c0.598-2.74-0.472-5.703-0.637-8.455
		c-0.046-0.775,0.008-1.541,0.126-2.305c0.271-1.686,0.892-3.283,1.565-4.844c0.908-2.105,2.164-4.566,2.241-6.891
		c-1.566-6.553-0.925-14.115,4.973-18.389l2.658-1.926l-0.949,3.123c-1.765,5.84-1.666,10.463,0.487,16.168l0.068,0.178v0.197
		c0.021,2.322-0.705,4.4-1.644,6.498c-0.793,1.779-1.76,3.598-2.218,5.492c-0.096,0.389-0.169,0.787-0.209,1.189l-0.014,0.104
		l-0.032,0.104c-1.148,3.641,0.807,8.848,0.675,12.727v0.068l-0.012,0.051c-0.263,1.844-0.789,3.531-1.511,5.238
		c-0.582,1.373-1.281,2.699-1.832,4.08c-0.629,1.559-0.977,3.006-0.96,4.625l0.078,0.021l17.376-51.139l3.089-2.033l2.559,3.266
		l-15.915,45.105c0.155-0.299,0.321-0.59,0.498-0.873l0.02-0.031l0.019-0.029c2.173-3.012,5.913-5.088,6.181-9.113
		c0.068-1.256,0.215-2.496,0.64-3.688c0.968-2.707,3.661-5.242,5.681-7.227l0.033-0.037l0.037-0.029
		c3.236-2.662,1.656-8.361,3.776-11.477l0.032-0.051l0.035-0.047c2.444-2.881,4.371-5.967,8.252-7.08l3.69-1.064l-2.559,2.844
		c-3.175,3.516-4.444,9.871-4.485,14.477v0.119l-0.029,0.113c-1.334,5.787-7.605,8.293-9.113,13.607
		c0.957,5.285-2.154,9.791-5.815,13.332l-0.077,0.072l-0.096,0.055c-1.876,1.219-3.141,2.873-3.54,5.02
		c0.161,0.104,0.32,0.209,0.479,0.314l27.939-36.041l3.725-1.043l0.176,4.725l-27.737,35.402c0.301,0.244,0.602,0.494,0.899,0.744
		c1.259-1.721,2.884-2.971,4.759-4.115c1.649-0.994,3.593-1.914,5.076-3.146c1.686-4.494,5.054-7.924,9.545-9.697
		c2.936-2.473,3.942-6.307,7.132-8.896l0.037-0.031l0.044-0.027c1-0.664,2.707-0.957,3.893-1.18c0.763-0.15,2.454-0.434,3.086-0.857
		l5.152-3.42l-3.644,4.973c-2.22,3.035-6.806,6.096-7.503,9.879l-0.069,0.354l-0.267,0.242c-3.716,3.449-8.286,5.816-11.54,9.74
		c-1.033,2.664-2.857,5.373-5.029,7.258l-0.034,0.031L170.6,232.6c-1.905,1.393-4.671,1.525-6.396,3.09
		c0.239,0.309,0.474,0.621,0.703,0.938l26.914-15.955l5.059-0.545l-1.333,4.744l-27.774,16.021l0.454,0.699
		c0.029-0.002,0.061-0.01,0.087-0.014c1.504-0.209,3.042-1.209,4.288-2.029c1.928-1.266,3.738-2.502,5.853-3.469l0.119-0.051
		l0.13-0.029c4.08-0.787,4.623-1.082,7.444-4.018l0.149-0.152l0.191-0.09c2.465-1.107,5.09-1.986,7.835-1.518l4.232,0.729
		l-4.062,1.383c-2.156,0.734-3.196,1.496-4.549,3.26c-1.422,1.873-2.46,2.928-4.668,3.941l-0.09,0.039l-0.097,0.025
		c-1.229,0.32-2.448,0.52-3.698,0.738c-0.777,0.148-1.635,0.316-2.344,0.678c-3.369,2.426-4.522,5.102-8.618,5.463l0.991,2.904
		h6.145c1.036,0,1.957-0.068,2.974-0.275c8.25-1.682,16.306-8.719,19.025-19.447c0.385-1.521,0.445-2.777,0.446-4.338l0.017-120.871
		l-130.766,0.156l-0.014,115.365c0,2.75,0.013,5.156,0.702,7.844c2.201,8.551,8.259,15.971,16.68,20.023
		c2.199,1.064,4.051,1.449,6.445,1.514c2.176,0.057,4.364,0.082,6.548,0.082L99.272,249.434z M135.731,100.307
		c-9.437-0.002-17.282-1.699-18.901-3.936l0.245-0.451c0.866-1.598,4.738-2.581,6.365-2.93c3.942-0.851,8.269-1.136,12.295-1.153
		c4.036-0.011,8.369,0.255,12.319,1.077c1.623,0.341,5.511,1.299,6.38,2.89l0.26,0.478
		C153.215,98.565,145.29,100.309,135.731,100.307z"/>
</g>
</svg>
